<?xml version="1.0" encoding="utf-8"?>
<!-- Generator: Adobe Illustrator 22.1.0, SVG Export Plug-In . SVG Version: 6.00 Build 0)  -->
<svg version="1.1" id="Layer_1" xmlns="http://www.w3.org/2000/svg" xmlns:xlink="http://www.w3.org/1999/xlink" x="0px" y="0px"
	 viewBox="0 0 501 173" style="enable-background:new 0 0 501 173;" xml:space="preserve">
<style type="text/css">
	.st0{fill:#FFE600;}
	.st1{fill:#FFFFFF;}
</style>
<g>
	<g>
		<path d="M139.2,29.8l7.6,0.4l5.3,21c0.1,0.6,0.3,1.2,0.4,1.9c0.2,0.7,0.3,1.3,0.4,1.9c0.1,0.7,0.3,1.3,0.4,2h0.1
			c0.2-0.7,0.4-1.3,0.6-2c0.2-0.6,0.4-1.2,0.6-1.8c0.2-0.7,0.4-1.3,0.6-1.8l7.2-20.4l7.3,0.3l-13.5,35.1l-6.6-0.3L139.2,29.8z"/>
		<path d="M179.1,68.3c-2-0.1-3.8-0.5-5.4-1.3c-1.6-0.8-3-1.8-4.1-3.1c-1.1-1.3-2-2.7-2.5-4.4c-0.6-1.7-0.8-3.5-0.7-5.4
			s0.5-3.7,1.2-5.3s1.7-3,2.9-4.2s2.7-2.1,4.4-2.7c1.7-0.6,3.5-0.9,5.5-0.8c2,0.1,3.8,0.5,5.4,1.3c1.6,0.8,3,1.8,4.1,3.1
			s2,2.7,2.5,4.4c0.6,1.7,0.8,3.5,0.7,5.4s-0.5,3.7-1.2,5.3s-1.7,3-2.9,4.2c-1.2,1.2-2.7,2.1-4.4,2.7S181.1,68.3,179.1,68.3z
			 M179.3,63.1c2.1,0.1,3.7-0.6,4.9-2.1s1.8-3.5,2-6c0.1-2.5-0.3-4.5-1.4-6.1c-1-1.6-2.6-2.5-4.7-2.5c-2.1-0.1-3.7,0.6-4.9,2.1
			s-1.8,3.5-2,6c-0.1,2.5,0.3,4.5,1.4,6.1C175.7,62.1,177.2,63,179.3,63.1z"/>
		<path d="M197.4,32.6l6.8,0.3l-1.7,35.7l-6.8-0.3L197.4,32.6z"/>
		<path d="M217.3,57.6l-3.1,2.9l-0.4,8.6l-6.7-0.3l1.7-35.7l6.7,0.3l-0.9,19.8l9.5-9.3l8.1,0.4l-9.9,9.3l9.8,16.4l-8.2-0.4
			L217.3,57.6z"/>
	</g>
	<path d="M242.5,71c-3.7-0.5-6.4-1.8-8.2-3.7s-2.6-4.3-2.4-7l6.2,0.9c0,1.5,0.5,2.7,1.3,3.5c0.9,0.8,2.1,1.3,3.6,1.5
		s2.7,0.1,3.6-0.3c0.9-0.4,1.4-1.1,1.5-2c0.1-0.6,0-1.1-0.4-1.5c-0.3-0.4-0.8-0.8-1.4-1.1c-0.6-0.3-1.3-0.6-2-0.9
		c-0.8-0.3-1.6-0.5-2.4-0.8c-1.1-0.4-2.2-0.8-3.2-1.3s-1.9-1-2.7-1.7s-1.3-1.5-1.7-2.5s-0.5-2.1-0.3-3.5s0.6-2.5,1.3-3.5
		c0.7-0.9,1.5-1.7,2.6-2.2c1-0.5,2.2-0.9,3.5-1s2.7-0.1,4.1,0.1c3.4,0.5,5.8,1.6,7.4,3.4c1.6,1.8,2.3,4,2.2,6.6l-6.1-0.9
		c0-1.4-0.3-2.4-1.1-3.1c-0.7-0.7-1.8-1.1-3.3-1.3c-1.3-0.2-2.4-0.1-3.3,0.3c-0.9,0.4-1.4,1-1.5,1.9c-0.1,0.6,0.1,1,0.4,1.4
		c0.3,0.4,0.8,0.7,1.4,1c0.6,0.3,1.3,0.6,2.2,0.8c0.8,0.3,1.7,0.5,2.5,0.9c1,0.4,2,0.8,3.1,1.3c1,0.5,1.9,1,2.7,1.7s1.4,1.6,1.7,2.6
		c0.4,1,0.5,2.3,0.3,3.8c-0.2,1.3-0.6,2.4-1.3,3.3c-0.7,0.9-1.5,1.7-2.6,2.2c-1,0.6-2.2,0.9-3.6,1.1C245.5,71.2,244,71.2,242.5,71z"
		/>
</g>
<g>
	<path d="M269,69.8c-2.1-0.1-4-0.6-5.6-1.4s-2.9-1.8-4-3.1c-1.1-1.3-1.8-2.8-2.3-4.5s-0.7-3.5-0.6-5.4s0.5-3.7,1.2-5.3
		c0.7-1.6,1.7-3,2.8-4.1c1.2-1.1,2.6-2,4.2-2.6c1.6-0.6,3.3-0.9,5.2-0.8c2.1,0.1,3.9,0.6,5.4,1.4c1.5,0.8,2.8,2,3.8,3.4
		s1.7,3.1,2.1,5s0.6,4,0.5,6.3l-18.6-1.1c0.2,2,0.7,3.6,1.8,4.8c1,1.2,2.5,1.8,4.4,2c1.3,0.1,2.4-0.1,3.2-0.7
		c0.8-0.5,1.5-1.3,1.9-2.2l6.7,0.4c-0.3,1.1-0.8,2.2-1.5,3.1c-0.7,1-1.5,1.8-2.5,2.5s-2.2,1.3-3.6,1.6
		C272.1,69.8,270.6,69.9,269,69.8z M269.6,48c-1.8-0.1-3.2,0.3-4.2,1.2s-1.7,2.2-2.1,3.9l11.4,0.6c0-1.6-0.5-3-1.4-4.1
		C272.5,48.7,271.2,48.1,269.6,48z"/>
	<path d="M292,48.2h0.1c0.9-1.3,2-2.3,3.3-3c1.3-0.6,2.8-0.9,4.5-0.8c1.3,0.1,2.5,0.4,3.6,0.9s1.9,1.3,2.7,2.2
		c0.7,0.9,1.3,1.9,1.6,3.1c0.4,1.2,0.5,2.5,0.4,3.9l-0.9,16.7l-6.8-0.4l0.9-15.7c0.1-1.4-0.2-2.6-1-3.5c-0.7-0.9-1.8-1.4-3.2-1.5
		c-1.5-0.1-2.8,0.4-3.8,1.4s-1.6,2.4-1.7,4.2l-0.8,14.5l-6.8-0.4l1.5-25.6l6.6,0.4L292,48.2z"/>
	<path d="M311,45.8l3.5,0.2l0.5-8l6.6,0.4l-0.5,8l4.4,0.2l-0.3,4.5l-4.4-0.2L320,64.5c-0.1,1,0.1,1.6,0.6,2c0.4,0.4,1,0.6,1.8,0.7
		l1.3,0.1c0.2,0,0.5,0,0.7,0l-0.3,5c-0.3,0-0.7,0-1.1,0s-0.8,0-1.4,0c-0.5,0-1.1-0.1-1.8-0.1c-0.8,0-1.7-0.2-2.5-0.4
		s-1.5-0.6-2.2-1.1c-0.6-0.5-1.1-1.2-1.5-2s-0.5-1.8-0.5-3l0.9-15l-3.5-0.2L311,45.8z"/>
</g>
<path d="M339.5,71.4c-3.7,0.1-6.6-0.7-8.7-2.3s-3.2-3.8-3.5-6.5l6.3-0.1c0.3,1.5,0.9,2.6,1.9,3.2c1,0.6,2.3,0.9,3.8,0.9
	s2.7-0.3,3.5-0.9c0.8-0.6,1.2-1.3,1.2-2.2c0-0.6-0.2-1.1-0.6-1.4c-0.4-0.4-0.9-0.6-1.5-0.9c-0.6-0.2-1.3-0.4-2.2-0.5
	c-0.8-0.1-1.7-0.3-2.5-0.4c-1.2-0.2-2.3-0.4-3.4-0.7s-2.1-0.7-2.9-1.2c-0.9-0.5-1.6-1.3-2.1-2.2s-0.8-2-0.9-3.4
	c0-1.4,0.2-2.6,0.7-3.6s1.2-1.9,2.2-2.6c0.9-0.7,2-1.2,3.3-1.6c1.3-0.4,2.6-0.6,4.1-0.6c3.4-0.1,6,0.6,7.9,2.1s3,3.5,3.3,6.1
	l-6.1,0.1c-0.2-1.4-0.7-2.4-1.6-2.9c-0.8-0.5-2-0.8-3.5-0.7c-1.3,0-2.4,0.3-3.2,0.8c-0.8,0.5-1.2,1.2-1.2,2.2c0,0.6,0.2,1,0.6,1.3
	s0.9,0.6,1.6,0.8s1.4,0.4,2.3,0.5s1.7,0.3,2.6,0.4c1.1,0.2,2.2,0.5,3.2,0.7c1.1,0.3,2.1,0.7,3,1.3s1.6,1.3,2.2,2.3
	c0.6,0.9,0.8,2.2,0.9,3.7c0,1.3-0.2,2.5-0.7,3.5s-1.2,1.9-2.2,2.6c-0.9,0.7-2.1,1.3-3.4,1.7C342.6,71.2,341.1,71.4,339.5,71.4z"/>
<path d="M365.5,70.8c-2,0-3.9-0.3-5.5-0.9c-1.6-0.7-3-1.6-4.2-2.8s-2.1-2.6-2.7-4.2c-0.7-1.6-1-3.4-1-5.3c0-1.9,0.2-3.7,0.8-5.3
	c0.6-1.7,1.4-3.1,2.5-4.4c1.1-1.2,2.4-2.2,4-3c1.6-0.7,3.3-1.1,5.3-1.2c1.7,0,3.2,0.2,4.5,0.6c1.3,0.4,2.5,1.1,3.5,1.8
	c1,0.8,1.8,1.8,2.5,2.9c0.6,1.1,1.1,2.4,1.4,3.8L370,53c-0.3-1.1-0.8-2.1-1.6-2.8c-0.8-0.7-1.9-1.1-3.1-1.1c-2.1,0-3.6,0.8-4.6,2.3
	s-1.5,3.5-1.4,6c0.1,2.4,0.6,4.4,1.6,5.8c1,1.5,2.6,2.2,4.7,2.1c1.4,0,2.5-0.4,3.4-1.2c0.9-0.7,1.4-1.8,1.6-3.3l6.5-0.1
	c-0.1,1.4-0.4,2.7-0.9,3.8c-0.6,1.2-1.3,2.2-2.3,3.2c-1,0.9-2.1,1.6-3.5,2.2C368.7,70.5,367.2,70.8,365.5,70.8z"/>
<path d="M386.3,47.3h0.1c0.9-1.4,1.9-2.4,3-3.1c1.1-0.7,2.6-1.1,4.3-1.1c1.3,0,2.5,0.2,3.6,0.6c1.1,0.5,2,1.1,2.8,1.9
	c0.8,0.8,1.4,1.8,1.9,3s0.7,2.4,0.7,3.8l0.4,16.7l-6.8,0.2l-0.4-15.7c0-1.4-0.4-2.5-1.2-3.4c-0.8-0.8-1.9-1.3-3.3-1.2
	c-1.5,0-2.7,0.6-3.7,1.7c-1,1.1-1.4,2.5-1.4,4.3l0.3,14.5l-6.8,0.2L379.2,34l6.8-0.2L386.3,47.3z"/>
<path d="M419.5,69.6c-2.1,0-4-0.3-5.7-0.9c-1.7-0.7-3.1-1.6-4.2-2.8c-1.2-1.2-2.1-2.6-2.7-4.3s-1-3.4-1-5.3c0-1.9,0.2-3.7,0.8-5.3
	c0.6-1.7,1.4-3.1,2.5-4.3s2.4-2.2,3.9-2.9s3.2-1.1,5.1-1.2c2.1,0,3.9,0.3,5.5,1s2.9,1.7,4,3.1c1.1,1.3,1.9,2.9,2.5,4.8
	c0.6,1.9,0.9,4,1,6.3l-18.6,0.4c0.3,2,1,3.5,2.1,4.7c1.1,1.1,2.6,1.6,4.6,1.6c1.3,0,2.4-0.3,3.2-0.9c0.8-0.6,1.4-1.4,1.7-2.3
	l6.7-0.2c-0.2,1.1-0.6,2.2-1.2,3.3c-0.6,1-1.4,1.9-2.3,2.7c-1,0.8-2.1,1.4-3.4,1.9C422.6,69.3,421.1,69.6,419.5,69.6z M418.4,47.8
	c-1.8,0-3.2,0.6-4.1,1.6s-1.5,2.4-1.8,4.1l11.4-0.3c-0.1-1.6-0.7-2.9-1.7-3.9C421.3,48.2,420,47.7,418.4,47.8z"/>
<path d="M433.8,32.8l6.8-0.2l0.1,6.1l-6.8,0.2L433.8,32.8z M434,42.9l6.8-0.2l0.6,25.6l-6.8,0.2L434,42.9z"/>
<path d="M455.9,68.3c-1.6,0-3.1-0.2-4.4-0.8c-1.3-0.6-2.5-1.5-3.5-2.6s-1.8-2.6-2.3-4.2c-0.6-1.7-0.9-3.5-0.9-5.6
	c0-2,0.2-3.8,0.7-5.5s1.2-3.1,2.2-4.3s2.1-2.2,3.4-2.9s2.8-1.1,4.4-1.1c1.8,0,3.3,0.3,4.5,1s2.1,1.6,2.9,2.6h0.1l-0.3-13.2l6.8-0.2
	l0.8,35.7l-6.5,0.1l-0.1-3.3h-0.1c-0.7,1.3-1.7,2.3-3,3C459.2,67.8,457.7,68.2,455.9,68.3z M457.3,62.6c2,0,3.5-0.8,4.6-2.2
	c1-1.4,1.5-3.3,1.4-5.7c0-1.2-0.2-2.3-0.4-3.3c-0.2-1-0.6-1.8-1.1-2.6c-0.5-0.7-1.1-1.3-1.9-1.6c-0.8-0.4-1.7-0.6-2.8-0.5
	c-1.9,0-3.3,0.8-4.2,2.3c-0.9,1.5-1.3,3.5-1.3,5.8c0.1,2.5,0.6,4.4,1.5,5.8C454.2,61.9,455.5,62.6,457.3,62.6z"/>
<path class="st0" d="M421.1,73.4"/>
<g>
	<path d="M138.8,73.7l28.7-0.9l0.2,6.1L157,79.2l1,29.6l-7.2,0.2l-1-29.6l-10.7,0.3L138.8,73.7z"/>
	<path d="M173.2,86.8h0.1c0.7-1.5,1.5-2.6,2.5-3.4c0.9-0.8,2.2-1.2,3.7-1.2c0.7,0,1.2,0,1.6,0.1l0.2,5.9h-0.1
		c-2.2-0.2-4.1,0.4-5.5,1.6s-2,3.2-2,5.9l0.4,12.5l-6.8,0.2l-0.8-25.6l6.5-0.2L173.2,86.8z"/>
	<path d="M200.3,107.4c-0.2-0.3-0.4-0.7-0.5-1.2c-0.2-0.5-0.3-1.1-0.4-1.6h-0.1c-0.3,0.5-0.7,1-1.1,1.4c-0.4,0.4-0.9,0.8-1.5,1.1
		c-0.6,0.3-1.3,0.6-2.1,0.8s-1.7,0.3-2.8,0.4c-2.6,0.1-4.8-0.5-6.5-1.8s-2.6-3.2-2.7-5.8c0-1.4,0.2-2.6,0.7-3.6s1.2-1.8,2.1-2.5
		c0.9-0.7,2-1.2,3.2-1.6c1.2-0.4,2.6-0.7,4-1c2.1-0.4,3.7-0.7,4.7-1.1c1-0.4,1.5-1,1.4-2c0-0.9-0.4-1.7-1.1-2.2
		c-0.7-0.5-1.8-0.8-3.3-0.7c-1.6,0.1-2.8,0.4-3.6,1c-0.8,0.6-1.2,1.5-1.3,2.8l-6,0.2c0-1.1,0.2-2.2,0.6-3.2c0.4-1,1.1-1.9,2-2.7
		s2-1.4,3.3-2c1.4-0.5,3-0.8,4.8-0.9c3.8-0.1,6.6,0.6,8.4,2.2c1.7,1.6,2.7,3.9,2.7,6.9l0.4,13c0.1,1.9,0.4,3.1,1,3.5v0.2
		L200.3,107.4z M193.3,103.5c1,0,1.8-0.2,2.6-0.5c0.7-0.3,1.4-0.7,1.9-1.2s0.9-1,1.1-1.6c0.2-0.6,0.4-1.2,0.3-1.8l-0.1-3.8
		c-0.6,0.4-1.3,0.7-2.1,0.9s-1.7,0.5-2.6,0.7c-1.8,0.5-3.1,1-4,1.5c-0.8,0.6-1.3,1.4-1.2,2.6c0,1.2,0.4,2,1.2,2.5
		S192.1,103.6,193.3,103.5z"/>
	<path d="M216.1,84.8h0.1c0.8-1.4,1.8-2.5,3-3.2s2.7-1.1,4.4-1.2c1.3,0,2.5,0.2,3.6,0.6c1.1,0.4,2,1.1,2.8,1.9s1.4,1.8,1.9,3
		s0.7,2.4,0.8,3.8l0.5,16.7l-6.8,0.2l-0.5-15.7c0-1.4-0.5-2.5-1.3-3.4c-0.8-0.8-1.9-1.2-3.3-1.2c-1.5,0-2.7,0.6-3.7,1.7
		c-0.9,1.1-1.4,2.6-1.3,4.3l0.5,14.5L210,107l-0.6-25.5l6.6-0.2L216.1,84.8z"/>
	<path d="M248.1,106.6c-3.7,0.1-6.6-0.6-8.7-2.2c-2.1-1.6-3.3-3.7-3.6-6.5l6.3-0.2c0.3,1.5,0.9,2.6,1.9,3.2c1,0.6,2.3,0.9,3.8,0.9
		s2.6-0.4,3.4-0.9c0.8-0.6,1.2-1.3,1.2-2.2c0-0.6-0.2-1.1-0.6-1.4c-0.4-0.4-0.9-0.6-1.5-0.9c-0.6-0.2-1.3-0.4-2.2-0.5
		c-0.8-0.1-1.7-0.3-2.5-0.4c-1.2-0.2-2.3-0.4-3.4-0.7c-1.1-0.3-2.1-0.7-2.9-1.2c-0.9-0.5-1.6-1.2-2.1-2.1c-0.5-0.9-0.8-2-0.9-3.4
		c0-1.4,0.2-2.6,0.7-3.6s1.2-1.9,2.1-2.6c0.9-0.7,2-1.3,3.3-1.6c1.3-0.4,2.6-0.6,4.1-0.6c3.4-0.1,6,0.6,7.9,2c1.9,1.5,3,3.5,3.3,6.1
		l-6.1,0.2c-0.2-1.4-0.7-2.4-1.6-2.9c-0.9-0.5-2-0.8-3.5-0.7c-1.3,0-2.4,0.3-3.2,0.8s-1.2,1.2-1.1,2.2c0,0.6,0.2,1,0.6,1.3
		c0.4,0.3,0.9,0.6,1.6,0.7c0.7,0.2,1.4,0.3,2.3,0.5c0.9,0.1,1.7,0.2,2.6,0.4c1.1,0.2,2.2,0.4,3.2,0.7c1.1,0.3,2.1,0.7,3,1.2
		c0.9,0.6,1.6,1.3,2.2,2.2s0.9,2.1,0.9,3.6c0,1.3-0.2,2.5-0.7,3.5s-1.2,1.9-2.1,2.6c-0.9,0.7-2,1.3-3.3,1.7
		C251.1,106.4,249.7,106.6,248.1,106.6z"/>
</g>
<path d="M262.9,78.5l6.5,0.6l-0.3,3.2h0.1c0.9-1.1,2-1.9,3.3-2.5c1.3-0.6,2.8-0.9,4.6-0.7c1.7,0.1,3.2,0.6,4.5,1.4
	c1.3,0.8,2.4,1.8,3.3,3.1c0.9,1.3,1.5,2.8,1.9,4.5s0.5,3.6,0.3,5.5c-0.2,2.1-0.6,3.9-1.3,5.5c-0.7,1.6-1.6,3-2.6,4.1
	c-1.1,1.1-2.3,1.9-3.7,2.4s-2.9,0.7-4.6,0.6c-1.8-0.2-3.3-0.6-4.4-1.4s-2-1.7-2.7-2.9h-0.1l-1,11.3l-6.8-0.6L262.9,78.5z
	 M273.9,100.2c1.7,0.2,3.2-0.4,4.3-1.7s1.8-3.1,2-5.5c0.2-2.4-0.1-4.4-0.9-6c-0.8-1.6-2.2-2.5-4.3-2.7c-1.1-0.1-2,0-2.8,0.4
	c-0.8,0.4-1.5,0.9-2,1.6s-1,1.5-1.3,2.5c-0.3,1-0.5,2.1-0.6,3.2c-0.2,2.3,0.2,4.2,1.1,5.7C270.4,99.2,271.8,100.1,273.9,100.2z"/>
<path d="M305.2,107.9c-0.2-0.3-0.3-0.7-0.4-1.2s-0.1-1.1-0.2-1.7h-0.1c-0.4,0.5-0.8,0.9-1.2,1.3c-0.5,0.4-1,0.7-1.6,0.9
	s-1.3,0.4-2.1,0.5c-0.8,0.1-1.8,0.1-2.9,0c-2.6-0.2-4.7-1.1-6.3-2.6c-1.5-1.5-2.2-3.5-2-6c0.1-1.4,0.5-2.5,1.1-3.5
	c0.6-0.9,1.4-1.6,2.4-2.2c1-0.5,2.1-0.9,3.4-1.2c1.3-0.2,2.6-0.4,4.1-0.5c2.2-0.1,3.7-0.3,4.8-0.5c1-0.2,1.6-0.8,1.7-1.8
	c0.1-0.9-0.2-1.7-0.9-2.3c-0.7-0.6-1.7-1-3.1-1.1c-1.6-0.1-2.8,0-3.7,0.6c-0.8,0.5-1.4,1.4-1.6,2.6l-6-0.5c0.1-1.1,0.5-2.2,1-3.1
	c0.6-1,1.3-1.8,2.3-2.5s2.1-1.2,3.5-1.5s3-0.4,4.9-0.3c3.8,0.3,6.5,1.4,8,3.2s2.2,4.2,1.9,7.2l-1.1,13c-0.2,1.9,0,3.1,0.6,3.6v0.2
	L305.2,107.9z M298.8,103.2c1,0.1,1.8,0,2.6-0.2c0.8-0.2,1.4-0.5,2-0.9c0.6-0.4,1-0.9,1.3-1.4c0.3-0.6,0.5-1.2,0.6-1.8l0.3-3.8
	c-0.6,0.3-1.4,0.5-2.2,0.7c-0.9,0.1-1.7,0.3-2.6,0.4c-1.8,0.2-3.2,0.6-4.1,1c-0.9,0.5-1.4,1.3-1.5,2.5s0.2,2.1,0.9,2.6
	C296.6,102.7,297.6,103.1,298.8,103.2z"/>
<path d="M324.5,88h0.1c0.9-1.4,1.9-2.4,2.9-3.1c1-0.6,2.3-0.9,3.8-0.8c0.7,0.1,1.2,0.2,1.6,0.3l-0.5,5.9h-0.1
	c-2.2-0.4-4.1-0.1-5.6,1c-1.5,1.1-2.4,3-2.7,5.6l-1.1,12.5l-6.8-0.6l2.2-25.6l6.5,0.6L324.5,88z"/>
<path d="M344.8,112.1c-2.1-0.2-4-0.7-5.6-1.5s-2.9-1.9-3.9-3.2c-1-1.3-1.8-2.8-2.2-4.5c-0.4-1.7-0.6-3.5-0.4-5.4
	c0.2-1.9,0.6-3.6,1.4-5.2c0.8-1.6,1.7-2.9,3-4c1.2-1.1,2.6-1.9,4.2-2.5c1.6-0.6,3.3-0.8,5.2-0.6c2.1,0.2,3.8,0.7,5.3,1.6
	c1.5,0.9,2.7,2.1,3.7,3.5c0.9,1.5,1.6,3.1,2,5.1c0.4,1.9,0.5,4,0.3,6.3l-18.6-1.8c0.1,2,0.6,3.6,1.6,4.9c1,1.2,2.4,1.9,4.4,2.1
	c1.3,0.1,2.4-0.1,3.3-0.6c0.8-0.5,1.5-1.2,1.9-2.1l6.7,0.6c-0.3,1.1-0.8,2.1-1.6,3.1c-0.7,1-1.6,1.8-2.6,2.5s-2.3,1.2-3.6,1.5
	C347.9,112.2,346.4,112.3,344.8,112.1z M346.1,90.3c-1.8-0.2-3.2,0.2-4.2,1.1c-1,0.9-1.7,2.2-2.2,3.8l11.4,1c0-1.6-0.4-3-1.3-4.1
	C348.9,91.1,347.7,90.4,346.1,90.3z"/>
<g>
	<path d="M368.9,87.1h0.1c0.9-1.4,2-2.4,3.2-3.1s2.7-1,4.5-0.9c1.3,0,2.5,0.3,3.6,0.8s2,1.2,2.7,2.1c0.7,0.9,1.3,1.9,1.7,3.1
		c0.4,1.2,0.6,2.5,0.5,3.9l-0.5,16.7l-6.8-0.2l0.5-15.7c0-1.4-0.3-2.5-1-3.4c-0.7-0.9-1.8-1.4-3.3-1.4s-2.8,0.5-3.8,1.5
		c-1,1.1-1.5,2.5-1.6,4.2l-0.4,14.5l-6.8-0.2l0.8-25.6l6.6,0.2L368.9,87.1z"/>
	<path d="M387.4,104.6L401,90v-0.2l-11.7-0.3l0.2-5.3l19.6,0.6l-0.2,5.4l-13.3,14.3v0.1l13.5,0.4l-0.2,5.4l-21.7-0.6L387.4,104.6z"
		/>
</g>
<g>
	<g>
		<path d="M82.5,82.8c-8.4,0.1-15.7-3.1-22.9-6.9c-3.8-2-6.9-5-10.1-7.9c-2.4-2.1-2.1-3.8,0.6-5.5c0.8-0.6,1.5-1.4,2.4-2.1
			c2.5-2.7,5-5.5,7.6-8.1c1.1-1.1,2.7-2,4.2-2.7c1.3-0.7,2.8-0.8,4.1-1.5c4.2-2.2,8.7-2.7,13.3-2.9c4.9-0.3,9.8,0.1,14.4,2
			c7.6,3.1,14.9,6.6,21,11.9c0.7,0.6,1.4,1.1,2,1.8c1.8,2,1.8,3.1,0,5c-0.1,0.1-0.3,0.3-0.4,0.4c-6,4.5-11.9,9.3-19.1,12.1
			c-3.5,1.4-7,2.7-10.5,3.6C86.9,82.5,84.7,82.5,82.5,82.8z M111.8,63.3c-5.2-5.5-11.6-8.3-18.6-10.9c1.3,8.8,0,16.8-4.9,23.8
			C98.6,76.9,105.3,70.7,111.8,63.3z M72.4,75.6c-0.1-0.7-0.1-1-0.3-1.1c-1-1.5-2-3.2-2.9-4.8c-2.5-3.8-2.4-9.5,0.3-13.5
			c0.8-1.3,1.4-2.8,2.2-4.5c-2.8,0.3-5,1.3-6.7,2.7c-3.2,2.8-6.2,5.7-9.3,8.7C58.6,70.8,65.2,73.4,72.4,75.6z M83,59.3
			c-1.5-0.4-2.7-0.7-3.8-0.8c-2.1-0.1-3.2,1.1-3.2,3.2c0,1.4,1.5,3.2,2.9,3.6c1.1,0.3,2.4-0.4,3.1-2.1C82.5,62,82.6,60.9,83,59.3z"
			/>
		<path class="st1" d="M111.8,63.3c-6.4,7.3-13,13.5-23.7,12.9c5-7.2,6.3-15,4.9-23.8C100.1,55.1,106.6,57.8,111.8,63.3z"/>
		<path class="st1" d="M72.4,75.6c-7.2-2.4-13.6-4.8-16.8-12.5c3.1-2.9,6.2-5.9,9.3-8.7c1.8-1.5,3.9-2.4,6.7-2.7
			c-0.8,1.7-1.4,3.2-2.2,4.5c-2.5,3.9-2.7,9.7-0.3,13.5c1,1.5,2,3.1,2.9,4.8C72.2,74.8,72.2,75,72.4,75.6z"/>
		<path class="st1" d="M83,59.3c-0.4,1.7-0.6,2.8-1,3.8c-0.7,1.7-1.8,2.4-3.1,2.1c-1.4-0.3-2.9-2.1-2.9-3.6c0-2.1,1.1-3.4,3.2-3.2
			C80.3,58.5,81.5,58.9,83,59.3z"/>
	</g>
	<g>
		<path d="M33.1,143.3c0.8-1.7,5.9-9,6.6-10.7c0.4-0.8,0.7-1.7,1.1-2.5c0.8-1.7,1.8-3.4,2.8-5c0.8-1.5,1.5-2.9,2.4-4.5
			c0.7-1.3,1.4-2.4,2.1-3.5c1-1.8,2-3.5,3.1-5.3c0.6-1,1.3-1.8,1.7-2.9c0.3-0.7,1.3,0.1,1.8,0c0.6-0.1,1-0.6,1.4-1.1
			c1-1.5,1.8-3.1,2.7-4.6c0.3-0.6,0.7-1.1,1.1-1.8c0.6-1,0.8-2,1.4-2.9c0.3-0.4,0.7-0.8,1-1.3c-0.7-0.8-1.7-1-2.5-1.5
			c-0.7-0.4-1.4-0.7-2.1-1.1c-1.4-0.8-2.9-1.8-4.3-2.8c-0.8-0.6-1.5-1.3-2.4-1.8c-1-0.8-2-1.7-2.9-2.5c-0.8-0.7-1.5-1.5-2.1-2.5
			c-2-2.9-3.5-6-4.3-9.5c-0.4-1.4-0.4-2.8-0.7-4.2c-0.1-1.3-0.1-2.5-0.3-3.6c0-1.1,0-2.2,0.1-3.2c0.1-2,0.3-3.8,0.6-5.7
			c0.1-1.3,0.6-2.7,0.8-3.9c0-0.3,0-0.6,0-0.7c0-0.1,0-0.1,0-0.3c0.8-0.7,0.6-1.7,1.1-2.5c0.7-1.3,1.4-2.5,2.1-3.8
			c1.1-2,2.1-4.1,3.4-6c0.8-1.4,2-2.7,2.9-4.1c1.3-1.7,2.5-3.2,4.1-4.5c1.1-1,2.4-1.8,3.6-2.7c1.3-0.8,2.7-1.5,4.1-2.2
			c1.7-0.8,3.5-1.7,5.3-2.5c2.1-1.1,4.5-1.8,6.7-2.4c1.3-0.3,2.4-0.7,3.8-0.4c0.8,0.1,1.7-0.1,2.5,0c1.5,0.3,2.9,0.6,4.5,1
			c2.2,0.7,4.6,1.3,6.9,2.1c3.8,1.3,7.6,2.7,10.9,5c1.7,1.3,3.5,2.4,5.2,3.8c1.4,1.1,2.7,2.2,3.8,3.6c1.3,1.5,2.5,3.2,3.2,5.2
			c0.1,0.4,0.4,0.8,0.7,1.4c1,2.1,2.1,4.1,3.1,6.2c0.7,1.8,1.4,3.5,2,5.5c0.7,2.7,1.1,5.5,1.3,8.3c0,1-0.3,2.1-0.4,3.1
			c-0.1,1.1-0.3,2.1-0.6,3.2c-0.4,2-0.8,4.1-1.4,5.9c-0.4,1.1-1,2.2-1.4,3.4c-0.3,0.6-0.6,1.1-0.8,1.7c-0.1,0.4-0.6,0.8-0.6,1.3V83
			c0,0.1,0.1,0.1,0.1,0.3c0,0.1-0.1,0.3-0.1,0.3c-1,1.4-2,2.8-3.1,4.1c-1.3,1.5-2.7,3.1-3.9,4.5c-1,1.1-2.1,2.1-3.2,3.1
			c-1.5,1.3-3.2,2.4-5,3.5c-2.2,1.4-4.8,2.5-7.4,3.4c-4.2,1.3-8.1,2.1-12.5,2.7c-3.5,0.4-8.3-0.7-11.6-2c-1-0.4-2-0.6-2.9-0.8
			c-0.1,0-0.3-0.1-0.6-0.3c-0.6,1-1,2.1-1.5,3.1c-0.8,1.4-1.8,2.5-2.7,3.9c-0.6,0.8-1,2-1,2.5c0.1,1,1.1,1.8,1.5,2.7
			c0.3,0.4,0.7,0.3,0.8,0.8c0.1,0.6-0.3,0.7-1.1,2c-0.4,0.6-0.6,1.3-1,2c-0.7,1.3-1.3,2.2-2,3.4c-1.4,2.5-2.8,5-4.2,7.7
			c-0.8,1.5-1.5,2.9-2.2,4.5c-0.6,1.1-1.1,2.2-1.7,3.4c-1.1,2-6.4,9.7-7.4,11.6 M86.2,99c0.1,0,0.3,0,0.6,0c2-0.1,4.1-0.4,6-0.8
			c4.8-1.3,9-4.2,12.6-7.4c4.9-4.3,9.4-9.8,11.1-16.1c1.4-5.5,0.7-11.4-0.3-17c-0.8-4.8-2.1-9.8-5-13.6c-2.8-3.5-6.9-5.9-10.8-8
			c-5.2-2.8-10.5-5.7-16.4-6.6c-7.6-1.1-15.6,1.3-21.7,5.9c-4.6,3.5-8.3,8.1-10.9,13.2c-2.8,5.5-4.1,11.6-4.2,17.8
			c-0.1,3.9,0.4,8,2,11.6c1.7,4.1,4.6,7.4,7.7,10.5c5.9,5.6,13.2,10.2,21.3,10.8C80.6,99.6,83.4,99.3,86.2,99z"/>
	</g>
</g>
<path d="M147.3,113.5l14.4,0.7c1.7,0.1,3.2,0.4,4.5,0.8c1.3,0.5,2.3,1.1,3.1,1.9c1.6,1.6,2.4,3.7,2.3,6.1c-0.1,1.6-0.6,3-1.6,4
	c-1,1-2.2,1.7-3.8,2.2l0,0.1c1.8,0.6,3.2,1.6,4.2,3.1c1,1.5,1.5,3.2,1.4,5.2c-0.1,1.5-0.4,2.8-0.9,3.9c-0.5,1-1.3,1.9-2.3,2.7
	c-1,0.8-2.2,1.3-3.6,1.7c-1.4,0.4-3,0.5-4.7,0.5l-14.7-0.7L147.3,113.5z M160.3,127c1.4,0.1,2.6-0.2,3.5-0.8
	c0.9-0.6,1.4-1.6,1.4-2.8c0.1-1.2-0.3-2.1-1.1-2.8c-0.8-0.7-1.9-1.1-3.3-1.2l-7.2-0.3l-0.4,7.6L160.3,127z M152.5,140.5l7.5,0.4
	c1.6,0.1,2.8-0.3,3.8-1c0.9-0.8,1.4-1.8,1.5-3.1c0.1-1.5-0.4-2.7-1.3-3.5c-1-0.8-2.2-1.3-3.7-1.3l-7.3-0.3L152.5,140.5z"/>
<path d="M186,148.2c-1.9-0.1-3.6-0.5-5.1-1.2c-1.5-0.7-2.7-1.6-3.6-2.8c-1-1.1-1.7-2.5-2.1-4c-0.5-1.5-0.6-3.1-0.6-4.8
	c0.1-1.7,0.4-3.3,1.1-4.7c0.6-1.5,1.5-2.7,2.5-3.7c1.1-1,2.3-1.8,3.7-2.4c1.4-0.6,3-0.8,4.7-0.7c1.9,0.1,3.5,0.5,4.9,1.2
	c1.4,0.7,2.5,1.7,3.4,3c0.9,1.3,1.6,2.8,2,4.5c0.4,1.7,0.6,3.6,0.5,5.7l-16.7-0.8c0.2,1.8,0.7,3.2,1.6,4.3c0.9,1.1,2.3,1.6,4,1.7
	c1.2,0.1,2.2-0.2,2.9-0.6c0.7-0.5,1.3-1.1,1.7-2l6,0.3c-0.3,1-0.7,2-1.3,2.8c-0.6,0.9-1.4,1.7-2.3,2.3c-0.9,0.6-2,1.1-3.2,1.5
	C188.8,148.1,187.5,148.3,186,148.2z M186.4,128.5c-1.6-0.1-2.9,0.3-3.7,1.2c-0.9,0.8-1.5,2-1.8,3.5l10.2,0.5c0-1.5-0.5-2.7-1.3-3.6
	C189,129.1,187.9,128.6,186.4,128.5z"/>
<path d="M206.5,129.1l0.1,0c0.8-1.3,1.6-2.2,2.5-2.9c0.9-0.6,2-0.9,3.4-0.8c0.6,0,1.1,0.1,1.4,0.2l-0.3,5.3l-0.1,0
	c-2-0.3-3.7,0.1-5,1.1c-1.3,1-2.1,2.7-2.2,5.2l-0.5,11.2l-6.1-0.3l1.1-23.1l5.9,0.3L206.5,129.1z"/>
<path d="M216.3,116.5l6.1-0.4l2,32.1l-6.1,0.4L216.3,116.5z"/>
<path d="M226.4,115.8l6.1-0.4l0.3,5.5l-6.1,0.4L226.4,115.8z M227,124.9l6.1-0.4l1.4,23l-6.1,0.4L227,124.9z"/>
<path d="M243.2,127.1l0.1,0c0.7-1.3,1.6-2.3,2.6-3c1.1-0.7,2.4-1.1,4-1.2c1.2-0.1,2.3,0.1,3.3,0.4c1,0.4,1.9,0.9,2.6,1.6
	c0.7,0.7,1.3,1.6,1.8,2.6c0.5,1,0.7,2.2,0.8,3.4l0.9,15l-6.1,0.4l-0.9-14.1c-0.1-1.3-0.5-2.3-1.2-3c-0.7-0.7-1.7-1.1-3-1
	c-1.3,0.1-2.4,0.6-3.3,1.7c-0.8,1-1.2,2.3-1.1,3.9l0.8,13.1l-6.1,0.4l-1.4-23l6-0.4L243.2,127.1z"/>
</svg>
