<?xml version="1.0" encoding="utf-8"?>
<!-- Generator: Adobe Illustrator 22.1.0, SVG Export Plug-In . SVG Version: 6.00 Build 0)  -->
<svg version="1.1" id="Layer_1" xmlns="http://www.w3.org/2000/svg" xmlns:xlink="http://www.w3.org/1999/xlink" x="0px" y="0px"
	 viewBox="0 0 769 180" style="enable-background:new 0 0 769 180;" xml:space="preserve">
<style type="text/css">
	.st0{fill:#FFE600;}
	.st1{fill:#FFFFFF;}
</style>
<rect x="-3" y="-1" width="771.9" height="182.2"/>
<path d="M-3.3,157.1c2.8-7.3,5.4-13.9,8.1-20.5c4.1-10.3,8.1-20.7,12.6-30.9c3.8-8.6,6.9-17.4,10-26.2c3.7-10.7,8.1-21.2,12.1-31.9
	c1.9-5,3.6-10.2,5.4-15.2c3.3-9.2,6.9-18.2,11.5-26.8c0.4-0.7,0.6-1.5,0.8-2.3c1-3.4,3.7-4.9,7-3.8c3.6,1.2,7.1,2.5,10.6,3.8
	c9.6,3.4,19.2,6.8,28.8,10.2c1.1,0.4,2.2,0.6,3.7,0.9c-0.8,3.2-1.3,6.4-2.3,9.4c-3.8,10.4-7.6,20.7-11.7,30.9
	c-3.8,9.7-7.6,19.4-11.8,28.9c-6.5,14.8-13.6,29.4-19.9,44.2c-4.9,11.5-10.2,22.9-13.7,35c-0.9,2.9-1.9,5.8-3.1,8.5
	c-0.6,1.4-1.9,2.6-3,4c-5.1-1.8-10.1-3.5-15-5.4c-5.1-2-10.2-4.2-15.2-6.4c-1.8-0.8-3.5-1.9-5.2-2.9c-1.7-1-3.2-1.9-5.5-1.7
	C-0.4,159.2-1.9,157.8-3.3,157.1z M8.6,154.3c6.2,4.8,26.6,13.4,30.7,13.4c1.5-3.9,2.8-7.7,4.4-11.5c4.6-11.3,9.1-22.6,13.9-33.8
	c4.3-10.1,9.1-20.1,13.5-30.1c4.6-10.6,9.3-21.2,13.6-32C89.4,48.6,93.6,36.7,98,25c0.8-2,1.2-4.2,1.9-6.5
	C87.4,14.4,75.6,9.2,63,5.7c-2,4.2-3.9,8-5.9,12.1C68.1,22,78.7,26,89.3,30c-0.4,1.6-0.6,3-1,4.4c-0.3,1.2-1.2,1.7-2.4,1.2
	c-6.2-2.5-12.3-5.1-18.6-7.5c-4-1.6-8.1-2.8-12.4-4.3c-0.6,1.6-1.1,2.8-1.7,4.4c10.5,4,20.7,7.8,31.4,11.9c-0.3,1.7-0.7,3.5-1.1,5.5
	c-1,0-1.8,0.1-2.4-0.1C74.1,42.7,67,40,59.8,37.3c-2.4-0.9-4.8-1.8-7.3-2.7c-1.1-0.4-2.2-0.1-2.6,1.1c-0.4,1.1-0.2,2.1,0.9,2.7
	c0.6,0.3,1.2,0.7,1.9,0.9c8.5,3.5,16.9,6.9,25.4,10.4c0.7,0.3,1.4,0.7,2.3,1.2c-0.2,1.3-0.4,2.4-0.7,3.5c-0.5,1.7-1.3,2.1-2.9,1.4
	c-5.6-2.5-11.1-5.1-16.7-7.4c-4.1-1.7-8.3-3.2-12.6-4.8c-0.6,1.5-1,2.7-1.6,4.2c2,0.9,3.7,1.7,5.6,2.5c6.9,2.6,13.8,5.2,20.7,7.9
	c1.8,0.7,3.5,1.8,5.4,2.7c-0.5,1.9-0.9,3.5-1.3,5.3c-11.2-4.2-21.9-8.3-32.8-12.4c-0.7,1.8-1.2,3.2-1.9,5.1
	c10.1,3.8,20.1,7.6,30.3,11.5c-0.4,1.9-0.8,3.6-1.3,5.8c-10.8-4.1-21.1-8.4-32.1-11.2c-0.7,2.2-1.3,4.1-2,6.3
	c10.2,3.2,20.1,6.3,30.2,9.5c0.8,2.1,0.1,4.1-1.8,6.3c-9.9-4.3-20.2-7.2-30.7-9.7c-7.3,22.4-18.1,43-26.1,64.8
	c11,5.2,21.9,10.3,33,15.5c-1,3.4-1.5,6.6-3.8,9.1C27.7,162.5,18.2,158.4,8.6,154.3z M6.4,149.1c-2.3,3-2.3,3-0.5,3.9
	C6.1,151.7,6.3,150.4,6.4,149.1z"/>
<path d="M170.4,7.4c10-0.9,19.5-2,29.1-2.4c7.5-0.3,15,0.2,22.5,0.5c2.2,0.1,2.7,0.8,2.6,2.8c-0.3,8.8-0.8,17.5-1.1,26.3
	c-0.2,5.2-0.2,10.3-0.1,15.5c0.3,10.2,0.8,20.3,1.1,30.5c0.1,2.3-0.4,4.7-0.4,7c0.2,15.6,0.5,31.2,0.7,46.7c0.1,7,0.3,14,0.3,21.1
	c0,5.5-0.3,10.9-0.4,16.3c-2.4,1-4.3,1.1-6.2-0.3c-0.6-0.4-1.5-0.5-2.3-0.5c-6.6,0-13.1,0-19.7-0.1c-6.6,0-13.1-0.2-19.7-0.2
	c-3.5,0-4-0.5-2.9-3.9c1.5-4.6,0.4-9.3,0.6-13.9c0.4-9.2-1.3-18.2-2.2-27.3c-1-9.4-1.3-18.9-1.8-28.4c-0.3-7.4-0.3-14.8-0.6-22.1
	c-0.5-10.1-1.4-20.1-1.9-30.2c-0.2-4,0-8,0-12c0-5.4,0-10.8-0.3-16.1C167.5,12.9,168,9.6,170.4,7.4z M174,12.9
	c0,0.7-0.1,1.3-0.1,1.9c0.1,8.8-0.1,17.5,0.3,26.3c0.4,9.7,1.2,19.4,1.7,29.1c0.4,9.7,0.5,19.4,0.9,29.2c0.3,7.6,0.7,15.2,1.3,22.8
	c0.4,5.5,1.6,10.9,1.9,16.4c0.2,3.6,1.1,7.1,0.7,10.8c-0.6,5.1-0.2,10.2,0.8,15.4c12.4-0.1,24.6,1.3,37.2,0.1
	c0.1-1.4,0.3-2.5,0.3-3.7c0-3.2-0.1-6.3-0.1-9.5c0-8.3,0.2-16.6,0-24.9c-0.2-12.2-0.6-24.4-0.8-36.5c-0.1-4.1,0.3-8.2,0.2-12.3
	c-0.2-10-0.7-19.9-0.9-29.8c-0.1-6.2,0.1-12.4,0.3-18.6c0.1-4.2,0.5-8.4,0.7-12.6c0.1-1.9,0-3.8,0-5.8c-3.4-0.3-6.3-0.9-9.2-0.7
	c-10.6,0.6-21.2,1.3-31.9,2.1C176.2,12.4,175.2,12.7,174,12.9z"/>
<path d="M156.6,172c-3.1,0-6.1-0.1-9,0c-2.9,0.1-5.9,0.1-8.7,0.7c-7.4,1.4-14.7,0.1-22.1-0.1c-2.1-0.1-4.2,0-6.5,0c0,1.6,0,3,0,4.3
	c-0.4,0.3-0.7,0.5-0.8,0.5c-6.1-0.4-5.1-0.4-5.2-5.4c-0.2-9-0.5-18-0.3-27c0.2-7.8,1.1-15.6,1.6-23.5c0.2-3.3,0-6.6,0.1-9.8
	c0.1-8.3,0.2-16.6,0.3-24.9c0.2-15.6,0.5-31.2,0.7-46.8c0.1-7.4,0-14.7-0.1-22.1c0-4.9,1-6.3,6-7.1c1.6-0.3,3.3-0.3,4.9-0.4
	c11.9-0.5,23.9-1,35.8-1.6c2.2-0.1,4.3-0.5,6.6-0.8c0.6,2.4,0.7,4.1-0.2,6.3c-0.9,2.4-0.8,5.3-1.1,8c-1.1,11.7-1.1,23.4-0.3,35.1
	c0.6,8.1,0.3,16.2,1,24.2c1.2,14.6,0.5,29.2,0.7,43.9c0.1,9.1-0.1,18.3-0.2,27.4c-0.1,4.9-0.4,9.8-0.6,14.7c0,0.6-0.4,1.2-0.7,1.8
	C157.9,170.2,157.3,171,156.6,172z M153,165.6c0.3-4.7,0.8-9.1,0.9-13.6c0.2-8.4,0.3-16.8,0.4-25.3c0-10.2,0.1-20.4-0.1-30.5
	c-0.1-6.7-0.8-13.3-1-20c-0.3-8-0.6-15.9-0.8-23.9c-0.2-7.9-0.9-15.9,0-23.8c0.5-4.5,0.8-9,1.1-13.5c-3.9-1.2-32.8,0.2-40.5,1.8
	c-0.1,1.2-0.2,2.5-0.2,3.7c-0.1,13-0.1,26-0.3,39c-0.2,15.2-0.6,30.5-0.9,45.7c-0.1,7.6,0.3,15.2-0.3,22.8
	c-0.7,10.5-1.5,21-1.4,31.6c0,2.1,0.2,4.2,0.3,6.2C124.6,168.4,138.6,166.4,153,165.6z"/>
<path class="st1" d="M8.6,154.3c9.5,4.1,19.1,8.2,28.8,12.3c2.2-2.5,2.8-5.7,3.8-9.1c-11.1-5.2-22-10.3-33-15.5
	c8-21.8,18.8-42.5,26.1-64.8c10.5,2.6,20.8,5.5,30.7,9.7c1.9-2.1,2.6-4.2,1.8-6.3c-10.2-3.2-20-6.3-30.2-9.5c0.7-2.2,1.3-4.1,2-6.3
	c11,2.8,21.2,7.2,32.1,11.2c0.5-2.2,0.9-4,1.3-5.8c-10.3-3.9-20.2-7.6-30.3-11.5c0.7-1.8,1.2-3.3,1.9-5.1
	c10.9,4.1,21.7,8.2,32.8,12.4c0.4-1.8,0.8-3.4,1.3-5.3c-1.9-1-3.6-2-5.4-2.7c-6.9-2.7-13.8-5.2-20.7-7.9c-1.8-0.7-3.6-1.6-5.6-2.5
	c0.6-1.5,1-2.8,1.6-4.2c4.3,1.6,8.5,3.1,12.6,4.8c5.6,2.4,11.1,4.9,16.7,7.4c1.6,0.7,2.4,0.4,2.9-1.4c0.3-1.1,0.4-2.3,0.7-3.5
	c-0.9-0.5-1.6-0.9-2.3-1.2c-8.5-3.5-16.9-6.9-25.4-10.4c-0.6-0.3-1.3-0.6-1.9-0.9c-1.2-0.6-1.4-1.6-0.9-2.7c0.5-1.2,1.5-1.5,2.6-1.1
	c2.4,0.9,4.8,1.8,7.3,2.7c7.1,2.7,14.2,5.4,21.4,8.1c0.6,0.2,1.3,0.1,2.4,0.1c0.4-2,0.8-3.8,1.1-5.5c-10.7-4-20.9-7.9-31.4-11.9
	c0.6-1.5,1.1-2.8,1.7-4.4c4.3,1.5,8.4,2.7,12.4,4.3c6.2,2.4,12.4,5,18.6,7.5c1.2,0.5,2.1,0,2.4-1.2c0.4-1.3,0.6-2.7,1-4.4
	c-10.6-4-21.2-8-32.3-12.2c2-4.1,3.9-7.9,5.9-12.1c12.6,3.5,24.4,8.7,36.9,12.8c-0.7,2.3-1.1,4.5-1.9,6.5
	c-4.4,11.8-8.6,23.6-13.3,35.2c-4.3,10.8-9,21.4-13.6,32c-4.4,10.1-9.2,20-13.5,30.1c-4.8,11.2-9.3,22.5-13.9,33.8
	c-1.5,3.8-2.9,7.6-4.4,11.5C35.3,167.7,14.8,159.1,8.6,154.3z M50.8,112.4c2.5-7.3-1.1-12.3-8.7-12.4c-0.7,0-1.4,0-2.1,0.1
	c-5.7,1-9,8.9-5.4,13.3c2.2,2.7,5.2,4.3,8.9,4.3C47,117.7,49.7,115.8,50.8,112.4z"/>
<path class="st1" d="M174,12.9c1.1-0.2,2.1-0.5,3.2-0.6c10.6-0.7,21.2-1.5,31.9-2.1c2.9-0.2,5.8,0.4,9.2,0.7c0,1.9,0.1,3.8,0,5.8
	c-0.2,4.2-0.6,8.4-0.7,12.6c-0.2,6.2-0.4,12.4-0.3,18.6c0.2,10,0.7,19.9,0.9,29.8c0.1,4.1-0.3,8.2-0.2,12.3
	c0.2,12.2,0.6,24.4,0.8,36.5c0.1,8.3,0,16.6,0,24.9c0,3.2,0.1,6.3,0.1,9.5c0,1.1-0.2,2.3-0.3,3.7c-12.5,1.2-24.8-0.2-37.2-0.1
	c-1-5.2-1.3-10.3-0.8-15.4c0.4-3.7-0.4-7.2-0.7-10.8c-0.3-5.5-1.5-10.9-1.9-16.4c-0.6-7.6-1-15.2-1.3-22.8
	c-0.4-9.7-0.4-19.4-0.9-29.2c-0.4-9.7-1.3-19.4-1.7-29.1c-0.3-8.8-0.2-17.5-0.3-26.3C173.9,14.2,174,13.6,174,12.9z M180.9,18.7
	c-2.5,2.8-3.3,5.9-3.1,9.2c0.5,7.6,1.1,15.2,1.6,22.7c0.6,8,1.3,16.1,1.9,24.1c0.6,7.7,1,15.4,1.5,23.1c0.6,8.4,1.2,16.8,1.9,25.2
	c0.2,3.1,0.5,6.3,0.7,9.3c3.8,1.5,4.7,1.3,6.5-2c6.6,0.4,13.3,0.7,20.3,1.1c0.3-2.1,2.2-3.2,2.1-5.5c-0.2-7.7,0-15.5,0.1-23.2
	c0-2.3,0.1-4.7,0.1-7c0-5.3,0-10.5,0-15.8c0-4,0.4-8,0.3-11.9c-0.3-12.3-0.8-24.5-1.2-36.8c-0.2-4.7-0.2-9.4-2.7-13.6
	C200.8,18,190.7,18.4,180.9,18.7z M192.3,149.9c0,0-0.1,0-0.1,0c0.1,1.5,0.2,3,0.4,4.5c0.6,4.9,4.1,7.7,9,7.1
	c4.1-0.5,7.5-2.5,10.4-5.3c0.4-0.4,0.8-1.2,0.9-1.8c0.7-4.8,0-9.4-2.8-13.4c-1.5-2.2-3.6-3.8-6.5-3.2c-2.3,0.5-4.6,0.8-6.8,1.7
	c-2.5,1-4.2,3-4.4,5.9C192.2,146.9,192.3,148.4,192.3,149.9z"/>
<path class="st1" d="M153,165.6c-14.3,0.7-28.4,2.8-42.9,0.1c-0.1-2-0.3-4.1-0.3-6.2c-0.1-10.6,0.7-21.1,1.4-31.6
	c0.5-7.6,0.1-15.2,0.3-22.8c0.3-15.2,0.7-30.5,0.9-45.7c0.2-13,0.2-26,0.3-39c0-1.3,0.1-2.5,0.2-3.7c7.7-1.7,36.6-3,40.5-1.8
	c-0.4,4.5-0.6,9-1.1,13.5c-0.8,8-0.2,15.9,0,23.8c0.2,8,0.5,15.9,0.8,23.9c0.3,6.7,0.9,13.3,1,20c0.2,10.2,0.2,20.4,0.1,30.5
	c0,8.4-0.1,16.9-0.4,25.3C153.8,156.5,153.3,161,153,165.6z M139.8,29c-0.3-1.2-0.1-3-0.9-3.6c-2.3-1.9-5.1-3.6-8.3-2.9
	c-1.3,0.3-2.8,1.1-3.5,2.1c-1.6,2.4-2.4,5.1-0.9,7.9c1.5,2.9,3.9,4.2,7.1,4.4c0.6,0,1.3,0,1.7-0.3C137.3,34.6,140.4,33,139.8,29z
	 M138.8,156.7c-0.1-0.4-0.2-1.5-0.7-2.1c-2-2.2-4.6-3.6-7.7-3.4c-1.8,0.1-2.9,0.9-3.5,2.8c-1.2,3.8-0.6,5.7,2.9,8.3
	c4.3,3.2,8.2,1.6,8.9-3.8C138.8,158.1,138.8,157.7,138.8,156.7z M127.7,117.8c1.2,1,1.8,1.9,2.6,2.2c4.2,1.4,8.6,2,13.1,1.4
	c1.7-0.2,2.6-1.1,2.6-2.7c0-0.9-0.2-1.8-0.4-3C139.6,116,133.8,115.6,127.7,117.8z M125.6,137.4c1,1.1,1.6,2.3,2.3,2.4
	c4.2,1,8.4,1.8,12.6,2.5c1.9,0.3,3.3-0.9,3.6-2.4c0.3-1.8-0.5-2.5-2.8-3C136.3,135.7,131.4,136.5,125.6,137.4z M144.2,110.6
	c-0.1-3.6-0.9-4.9-3.7-5.1c-2.9-0.3-5.9-0.2-8.8-0.1c-1.5,0.1-3,0.8-5.2,1.4C132.2,111.5,138.1,111,144.2,110.6z M126.1,128.6
	c5.4,3.1,10.5,3.9,15.7,3.9c1.7,0,2.6-0.7,2.7-2.4c0.1-1.8-0.5-2.8-2.2-2.9C137.1,126.7,132,127,126.1,128.6z"/>
<path d="M50.8,112.4c-1.1,3.3-3.9,5.3-7.4,5.3c-3.6,0-6.7-1.6-8.9-4.3c-3.6-4.4-0.3-12.3,5.4-13.3c0.7-0.1,1.4-0.1,2.1-0.1
	C49.7,100.1,53.3,105.2,50.8,112.4z M42.4,103.6c-2.8,1.7-3.6,4.5-2.5,8c0.4,1.3,1.3,2.2,2.5,2c0.8-0.1,1.8-1,2.2-1.8
	c0.7-1.3,1.1-2.8,1.6-4.2C45.8,105.6,44.6,104.1,42.4,103.6z"/>
<path d="M180.9,18.7c9.9-0.4,19.9-0.8,30-1.2c2.5,4.2,2.5,8.9,2.7,13.6c0.5,12.3,0.9,24.5,1.2,36.8c0.1,4-0.2,8-0.3,11.9
	c-0.1,5.3,0,10.5,0,15.8c0,2.3-0.1,4.7-0.1,7c-0.1,7.7-0.3,15.5-0.1,23.2c0.1,2.3-1.8,3.4-2.1,5.5c-7-0.4-13.7-0.8-20.3-1.1
	c-1.8,3.3-2.7,3.6-6.5,2c-0.2-3-0.5-6.2-0.7-9.3c-0.6-8.4-1.3-16.8-1.9-25.2c-0.5-7.7-0.9-15.4-1.5-23.1c-0.6-8-1.3-16.1-1.9-24.1
	c-0.6-7.6-1.1-15.2-1.6-22.7C177.6,24.6,178.4,21.5,180.9,18.7z M208.1,57.7c-7.5-0.7-14.6-1.4-22-0.2c0.3,2.4,0.6,4.5,0.9,6.8
	c3.8-0.4,7.3-0.9,10.8-1c3.5-0.2,7.1,0,10.8,0C208.4,61.5,208.3,59.9,208.1,57.7z M206.9,23.5c-7.9,0.3-15.2,0.6-22.7,0.9
	c0,2,0,3.6,0,5.4c7.7,0,15.2,0,23,0C207.1,27.8,207,25.9,206.9,23.5z M187.4,81c0,1,0,1.6,0,2.2c0,4.2,0.2,4.4,4.3,4.5
	c4.3,0.1,8.6,0.1,13,0.1c1,0,2-0.2,3.1-0.3c0-2.3,0-4.2,0-6.5C201,81,194.4,81,187.4,81z M208.6,69.5c-7.2-0.5-14.2-0.2-21.4,0.5
	c0.1,2,0.2,3.7,0.4,5.7c7.2-0.3,14-0.6,21-0.9C208.6,72.9,208.6,71.3,208.6,69.5z M184.8,41.1c7.3,0,14.3,0,21.3-0.1
	c0.6,0,1.5-0.9,1.6-1.5c0.2-1-0.1-2-0.2-3c-5-0.8-20.5-0.8-22.9,0.1C184.6,38,184.7,39.3,184.8,41.1z M185.5,51.4
	c7.6,0,14.9,0,22.3,0c0-1.6,0-2.8,0-4.1c-4.6-1-19.8-0.6-22.3,0.5C185.5,49,185.5,50.2,185.5,51.4z M208,102.6
	c-6.6-0.2-12.7-0.5-19.1-0.7c0.3,1.5,0.5,2.7,0.7,3.3c6.2-0.4,12.1,0.6,18.2,0.5C207.9,104.7,207.9,103.9,208,102.6z M188.4,93.7
	c-0.6,1.8,0.3,2.3,1.9,2.4c5.4,0.2,10.7,0.5,16.1,0.7c1,0,2-0.1,1.9-1.4c0-1.1-0.7-1.6-1.9-1.6C200.6,93.8,194.7,93.7,188.4,93.7z
	 M190.4,118.4c0.3,2.3,0.4,4,0.6,5.9c2,0.2,3.7,0.4,5.6,0.6c-0.5-2-0.8-3.5-1.2-5.1c4.2,0,7.9,0,11.7,0c0-0.2,0-0.5,0-0.7
	C201.8,118.9,196.4,118.6,190.4,118.4z M207.2,112.6c0-0.3,0-0.5,0-0.8c-5.7-0.4-11.4-0.8-17.3-1.2c0.2,0.9,0.3,1.4,0.4,1.9
	C196,112.3,201.6,113.5,207.2,112.6z"/>
<path d="M192.3,149.9c0-1.5-0.1-3,0-4.5c0.3-2.8,1.9-4.9,4.4-5.9c2.1-0.9,4.5-1.2,6.8-1.7c2.9-0.6,5,1,6.5,3.2
	c2.8,4,3.6,8.6,2.8,13.4c-0.1,0.6-0.4,1.4-0.9,1.8c-2.9,2.9-6.3,4.8-10.4,5.3c-4.9,0.6-8.4-2.1-9-7.1c-0.2-1.5-0.2-3-0.4-4.5
	C192.2,149.9,192.2,149.9,192.3,149.9z M204.7,143.5c-1.3-0.2-2.5-0.3-3.6-0.7c-1.6-0.5-2.7,0.1-2.9,1.6c-0.4,3.2-0.7,6.5-0.7,9.7
	c0,2,2.6,4.4,4,4.3c1.8,0,5.5-3,5.6-4.6C207.4,150.3,207.4,146.6,204.7,143.5z"/>
<path d="M139.8,29c0.6,4-2.5,5.6-4.8,7.7c-0.4,0.3-1.1,0.3-1.7,0.3c-3.2-0.2-5.6-1.5-7.1-4.4c-1.4-2.8-0.7-5.6,0.9-7.9
	c0.7-1,2.2-1.8,3.5-2.1c3.2-0.7,6,1,8.3,2.9C139.7,26,139.6,27.8,139.8,29z M131.6,33.5c3.1-1.4,3.8-2.7,3.2-6
	c-0.1-0.6-0.6-1.4-1.1-1.5c-0.5-0.1-1.5,0.3-1.7,0.8C130.7,28.9,129.7,31.1,131.6,33.5z"/>
<path d="M138.8,156.7c-0.1,1-0.1,1.5-0.1,1.9c-0.8,5.3-4.6,7-8.9,3.8c-3.5-2.6-4-4.5-2.9-8.3c0.6-1.9,1.7-2.7,3.5-2.8
	c3.1-0.2,5.7,1.1,7.7,3.4C138.7,155.2,138.7,156.3,138.8,156.7z M133.6,155.5c-1.7,1-2.1,2.2-0.5,3.7
	C133.3,158,133.4,156.8,133.6,155.5z"/>
<path d="M127.7,117.8c6.2-2.2,11.9-1.8,17.8-2c0.2,1.2,0.4,2.1,0.4,3c0,1.6-0.9,2.5-2.6,2.7c-4.5,0.5-8.8,0-13.1-1.4
	C129.4,119.8,128.8,118.9,127.7,117.8z"/>
<path d="M125.6,137.4c5.8-0.9,10.7-1.7,15.7-0.5c2.3,0.5,3,1.2,2.8,3c-0.2,1.5-1.7,2.7-3.6,2.4c-4.2-0.7-8.4-1.5-12.6-2.5
	C127.2,139.7,126.6,138.5,125.6,137.4z"/>
<path d="M144.2,110.6c-6.1,0.4-12,0.9-17.7-3.8c2.2-0.6,3.7-1.4,5.2-1.4c2.9-0.2,5.9-0.2,8.8,0.1C143.3,105.7,144.2,107,144.2,110.6
	z"/>
<path d="M126.1,128.6c5.9-1.6,11-1.9,16.2-1.4c1.8,0.2,2.3,1.1,2.2,2.9c-0.1,1.8-1,2.5-2.7,2.4C136.6,132.5,131.5,131.7,126.1,128.6
	z"/>
<path class="st1" d="M42.4,103.6c2.2,0.5,3.3,1.9,3.8,4c-0.5,1.4-0.9,2.9-1.6,4.2c-0.5,0.8-1.4,1.7-2.2,1.8c-1.2,0.2-2.1-0.7-2.5-2
	C38.8,108.1,39.7,105.4,42.4,103.6z"/>
<path class="st1" d="M208.1,57.7c0.2,2.2,0.3,3.8,0.4,5.5c-3.7,0-7.3-0.1-10.8,0c-3.5,0.2-6.9,0.7-10.8,1c-0.3-2.3-0.6-4.4-0.9-6.8
	C193.5,56.3,200.6,57,208.1,57.7z"/>
<path class="st1" d="M206.9,23.5c0.1,2.4,0.2,4.2,0.3,6.3c-7.8,0-15.3,0-23,0c0-1.9,0-3.5,0-5.4C191.7,24.1,199,23.8,206.9,23.5z"/>
<path class="st1" d="M187.4,81c7,0,13.5,0,20.4,0c0,2.3,0,4.2,0,6.5c-1.1,0.1-2.1,0.3-3.1,0.3c-4.3,0-8.6,0-13-0.1
	c-4.1-0.1-4.3-0.3-4.3-4.5C187.4,82.6,187.4,82,187.4,81z"/>
<path class="st1" d="M208.6,69.5c0,1.8,0,3.4,0,5.3c-7,0.3-13.8,0.6-21,0.9c-0.1-2-0.2-3.7-0.4-5.7C194.4,69.3,201.4,69,208.6,69.5z
	"/>
<path class="st1" d="M184.8,41.1c-0.1-1.7-0.2-3.1-0.2-4.4c2.4-0.9,17.8-0.9,22.9-0.1c0.1,1,0.4,2,0.2,3c-0.1,0.6-1,1.5-1.6,1.5
	C199.1,41.1,192.1,41.1,184.8,41.1z"/>
<path class="st1" d="M185.5,51.4c0-1.3,0-2.4,0-3.5c2.4-1.1,17.6-1.5,22.3-0.5c0,1.2,0,2.5,0,4.1C200.4,51.4,193.1,51.4,185.5,51.4z
	"/>
<path class="st1" d="M208,102.6c-0.1,1.2-0.1,2.1-0.2,3.1c-6.1,0.1-12-0.9-18.2-0.5c-0.1-0.7-0.4-1.8-0.7-3.3
	C195.3,102.2,201.4,102.4,208,102.6z"/>
<path class="st1" d="M188.4,93.7c6.2,0,12.1,0,18,0c1.1,0,1.8,0.5,1.9,1.6c0.1,1.3-0.9,1.5-1.9,1.4c-5.4-0.2-10.7-0.4-16.1-0.7
	C188.8,96.1,187.8,95.5,188.4,93.7z"/>
<path class="st1" d="M190.4,118.4c6,0.3,11.4,0.5,16.8,0.7c0,0.2,0,0.5,0,0.7c-3.8,0-7.5,0-11.7,0c0.4,1.6,0.7,3.1,1.2,5.1
	c-1.9-0.2-3.6-0.4-5.6-0.6C190.9,122.4,190.7,120.7,190.4,118.4z"/>
<path class="st1" d="M207.2,112.6c-5.6,0.9-11.2-0.4-16.9,0c-0.1-0.5-0.2-1.1-0.4-1.9c5.9,0.4,11.6,0.8,17.3,1.2
	C207.2,112.1,207.2,112.4,207.2,112.6z"/>
<path class="st1" d="M204.7,143.5c2.7,3.1,2.7,6.7,2.5,10.4c-0.1,1.6-3.9,4.6-5.6,4.6c-1.4,0-4-2.4-4-4.3c0-3.2,0.3-6.5,0.7-9.7
	c0.2-1.5,1.3-2.1,2.9-1.6C202.2,143.2,203.3,143.3,204.7,143.5z"/>
<path class="st1" d="M131.6,33.5c-1.9-2.3-0.8-4.6,0.4-6.7c0.3-0.5,1.2-0.9,1.7-0.8c0.5,0.1,0.9,0.9,1.1,1.5
	C135.4,30.7,134.6,32.1,131.6,33.5z"/>
<path class="st1" d="M133.6,155.5c-0.2,1.2-0.3,2.4-0.5,3.7C131.5,157.7,131.9,156.5,133.6,155.5z"/>
<g>
	<path d="M188.7,101.8c15.8,16.6,34,30,49.9,46c-0.2,2.9-2.1,5-4,7.1c-2.2,2.4-4.3,4.9-6.4,7.4c-0.4,0.5-0.6,1.5-0.5,2.3
		c0.4,2.5-0.5,4.6-2.4,6.6c-0.8-0.4-1.7-0.7-2.3-1.3c-6.3-5-12.5-10.1-18.8-15.2c-2.7-2.2-5.5-4.4-8.2-6.6c-4.3-3.5-8.7-7.1-13-10.7
		c-2.1-1.8-4.3-3.7-6.3-5.6c-2.9-2.8-5.8-5.8-8.7-8.6c-0.7-0.7-1.5-1.4-2.5-2.3c-1.4,5.4-2.4,10.6-2.9,15.8c-0.4,4-0.6,7.9-0.9,11.9
		c-0.1,0.7-0.1,1.4-0.1,2.1c0.1,1,1,2-0.2,2.9c-1.2,0.9-2.3,2.1-3.6,2.6c-1.1,0.4-2.4,0.2-3.1-1.3c-1.6-3.3-3.6-6.5-5.4-9.8
		c-3.2-5.7-6.4-11.5-9.7-17.1c-4.8-8.1-8.6-16.6-11.7-25.5c-2.9-8.4-6.3-16.6-10.6-24.4c-2.2-3.9-3.8-8-5.8-12
		c-1.4-2.7-0.3-4.8,1.2-7.2c31.6,8.4,63.7,14,94.7,23.8c-0.2,2.2-0.2,4-0.5,5.8c-0.2,0.8-1,1.6-1.7,2.1c-4.5,3.2-9,6.3-13.6,9.4
		C190.6,100.6,189.7,101.2,188.7,101.8z M198.3,88.8c-2.7-3.6-6.4-4.2-10.1-5c-0.3-0.1-0.7-0.2-1-0.3c-11-2.7-22-5.5-33.1-8.1
		c-10.2-2.4-20.5-4.8-30.8-7.1c-1.3-0.3-2.6-0.9-3.7-0.4c3.5,7.3,7.4,14.3,10.1,21.8c3.1,8.5,7.2,16.5,11.1,24.6
		c4.5,9.3,9,18.5,13.6,27.7c0.5,1.1,1.3,2,1.9,3c0.8-3.3,0.9-6.4,1.4-9.5c0.8-5,1.9-9.9,2.9-14.8c0.6-2.7,1-5.5,1.7-8.2
		c0.7-2.6,1.9-3.2,4.5-2.9c0.8,1.3,1.3,2.5,2.2,3.3c3.3,3.2,6.5,6.4,10.1,9.2c7.5,6,15.3,11.6,22.8,17.5c4.9,3.8,9.5,8,14.2,12
		c2,1.7,4.1,3.4,6.1,5c3.6-2.4,6.1-5.3,7.8-9.1c-1.2-1.1-2.3-2.3-3.5-3.4c-6.4-5.7-12.7-11.4-19.1-17.1c-4.7-4.2-9.5-8.3-14.2-12.5
		c-3.6-3.3-6.7-7.1-11.1-9.6c-2.3-1.3-1.7-4.8,0.5-6.2C187.9,95.5,193,92.2,198.3,88.8z"/>
	<path class="st1" d="M198.3,88.8c-5.3,3.4-10.5,6.7-15.6,9.9c-2.2,1.4-2.8,4.9-0.5,6.2c4.3,2.5,7.5,6.3,11.1,9.6
		c4.7,4.3,9.5,8.3,14.2,12.5c6.4,5.7,12.7,11.4,19.1,17.1c1.2,1.1,2.3,2.2,3.5,3.4c-1.7,3.8-4.2,6.6-7.8,9.1c-2-1.6-4.1-3.3-6.1-5
		c-4.7-4-9.3-8.1-14.2-12c-7.5-5.9-15.3-11.6-22.8-17.5c-3.6-2.8-6.8-6.1-10.1-9.2c-0.9-0.8-1.3-2-2.2-3.3c-2.6-0.4-3.9,0.2-4.5,2.9
		c-0.7,2.7-1.1,5.5-1.7,8.2c-1,4.9-2.1,9.8-2.9,14.8c-0.5,3.1-0.6,6.2-1.4,9.5c-0.6-1-1.4-2-1.9-3c-4.5-9.2-9.1-18.5-13.6-27.7
		c-3.9-8.1-8.1-16.1-11.1-24.6c-2.7-7.4-6.6-14.4-10.1-21.8c1.1-0.5,2.4,0.1,3.7,0.4c10.3,2.3,20.5,4.7,30.8,7.1
		c11,2.6,22.1,5.4,33.1,8.1c0.3,0.1,0.7,0.2,1,0.3C191.9,84.6,195.7,85.2,198.3,88.8z"/>
</g>
<path class="st1" d="M291,54.6L270.7,3.8l11.6,0l14.5,39l13.2-39l11.2,0l-19,50.8L291,54.6z"/>
<path class="st1" d="M352.5,39.9c-1.5,11.1-10.4,17.6-22.1,16c-11.7-1.6-18.6-10.2-17.1-21.3c1.5-11.2,10.4-17.5,22.1-16
	C347.1,20.3,354,28.7,352.5,39.9z M323.8,36.2c-0.8,6,2.3,10.5,7.7,11.3c5.4,0.7,9.6-2.8,10.4-8.8c0.8-6-2.4-10.5-7.7-11.3
	C328.8,26.7,324.6,30.2,323.8,36.2z"/>
<path class="st1" d="M356.3,56.4l2.4-50.8l10.5,0.5l-2.4,50.8L356.3,56.4z"/>
<path class="st1" d="M384.8,47.7l-0.4,10l-10.5-0.4l2.1-50.8l10.5,0.4l-1.2,27.9l14.1-13.3l12,0.5l-14.1,13.6l13.2,23.2L398,58.3
	l-8.3-15.4L384.8,47.7z"/>
<path class="st1" d="M442.7,27.9l-4.3,6.8c-3.8-2.6-7.8-4.3-10.9-4.5c-2.5-0.2-4.3,0.4-4.5,2.4c-0.5,5.5,19.1,4.4,17.9,17.4
	c-0.7,7.5-7.6,10.9-16,10.1c-5.9-0.5-11.6-2.8-15.4-6.5l4-6.8c3.6,3.3,8.3,5.3,12.4,5.7c2.7,0.2,4.7-0.5,4.9-2.5
	c0.5-5.9-18.8-4.4-17.7-17.3c0.7-7.6,7.5-10.9,15.5-10.2C433.8,23,438.9,24.9,442.7,27.9z"/>
<path class="st1" d="M483.8,40.8l-26.3,2.3c1.6,4.5,5.4,7,10.1,6.5c3.5-0.3,6.6-2,8.9-4.7l6,5.1c-3.3,4.4-8.5,7.3-15.1,7.9
	c-11.7,1-19.8-5.8-20.8-16.9c-1-11.3,6.1-19.5,17.2-20.5C476.8,19.3,483.5,27.3,483.8,40.8z M473.4,35.4c-0.6-4.8-4-7.7-8.8-7.3
	c-4.6,0.4-7.5,3.8-7.9,8.7L473.4,35.4z"/>
<path class="st1" d="M524.9,36.2l0.4,23.1l-10.5,0.2l-0.3-20.1c-0.1-4.7-2.9-7.5-7.4-7.4c-5.3,0.1-8.4,4.2-8.3,9.6l0.3,18.1
	l-10.5,0.2l-0.6-36.8l10.5-0.2l0.1,6.4c2.5-4.6,6.9-6.9,12.6-7C519.4,22.2,524.7,27.6,524.9,36.2z"/>
<path class="st1" d="M552,60c-2.8,1.4-6.3,2.1-9.7,1.9c-6.6-0.4-11.3-4.5-10.8-12.1l1.1-17l-5.1-0.3l0.5-7.2l5.1,0.3l0.7-10.1
	l10.5,0.7l-0.7,10.1l10,0.7l-0.5,7.3l-10-0.7l-1,15.2c-0.2,3.1,1,4.4,3.3,4.5c1.4,0.1,3-0.3,5-1L552,60z"/>
<path class="st1" d="M582.9,27.2l-2.8,7.6c-4.3-1.8-8.5-2.6-11.6-2.3c-2.4,0.3-4.1,1.3-3.9,3.2c0.6,5.5,19.6,0.5,21.1,13.4
	c0.9,7.5-5.3,12.2-13.6,13.1c-5.9,0.7-11.9-0.4-16.4-3.3l2.6-7.5c4.1,2.5,9.2,3.6,13.2,3.1c2.7-0.3,4.5-1.4,4.3-3.4
	c-0.7-5.9-19.3-0.5-20.8-13.4c-0.9-7.6,5.1-12.2,13.1-13.1C573.1,24.2,578.5,25.1,582.9,27.2z"/>
<path class="st1" d="M622.1,26.3l-6.6,5.7c-2.2-2.3-5.1-3.5-8.7-3.2c-5.1,0.5-8.4,4.7-7.9,10.6c0.5,5.9,4.5,9.6,9.6,9.2
	c3.8-0.3,6.6-2,8.2-5l7.7,4.3c-2.6,5.4-8.1,8.9-15.6,9.6c-11.1,1-19.4-5.9-20.3-17c-1-11.3,5.9-19.5,17.2-20.5
	C612.6,19.4,618.4,21.7,622.1,26.3z"/>
<path class="st1" d="M663.2,34.6v23.2h-10.5V37.6c0-4.7-2.7-7.5-7.3-7.5c-5.3,0.1-8.5,4-8.5,9.5v18.2h-10.5V6.9h10.5v20.5
	c2.6-4.6,7-6.8,12.7-6.9C658,20.5,663.2,25.9,663.2,34.6z"/>
<path class="st1" d="M704,43.7l-26.4,1.6c1.5,4.6,5.2,7.1,10,6.8c3.5-0.2,6.7-1.8,9.1-4.5l5.9,5.3c-3.4,4.3-8.7,7.1-15.3,7.5
	c-11.8,0.7-19.7-6.3-20.4-17.5c-0.7-11.3,6.6-19.3,17.8-20C697.5,22.1,704,30.3,704,43.7z M693.7,38.1c-0.4-4.8-3.8-7.8-8.6-7.5
	c-4.6,0.3-7.6,3.6-8.1,8.5L693.7,38.1z"/>
<path class="st1" d="M718.9,10.7c0.1,3.4-2.2,6-5.5,6c-3.4,0.1-5.7-2.3-5.8-5.7c-0.1-3.4,2.2-6,5.5-6
	C716.4,4.8,718.8,7.2,718.9,10.7z M709.2,58.3l-1-36.8l10.5-0.3l1,36.8L709.2,58.3z"/>
<path class="st1" d="M762.3,61.7h-10.5v-5.4c-2.6,3.8-6.6,5.8-11.6,5.8c-10.5,0-17.4-7.6-17.4-19c0-11.2,6.8-18.7,17.1-18.7
	c5.2,0,9.2,2.1,11.9,5.8V10.9h10.5V61.7z M751.8,43.5c0-6-3.8-10.2-9.2-10.2c-5.5,0-9.2,4.2-9.3,10.2c0.1,6,3.8,10.2,9.3,10.2
	C748,53.7,751.8,49.5,751.8,43.5z"/>
<path class="st1" d="M293.2,73.5l3.2,38.6l-10.8,0.9l-3.2-38.6l-14.5,1.2l-0.8-9.1l39.9-3.3l0.8,9.1L293.2,73.5z"/>
<path class="st1" d="M315.1,87.7c2-4.8,5.9-7.7,11.4-8.3l1.1,9.9c-7.6,0.1-11.8,4.7-11.1,10.9l1.9,17.6l-10.5,1.1l-4-36.6l10.5-1.1
	L315.1,87.7z"/>
<path class="st1" d="M354.8,110.4c-2.2,3.3-6,5.3-11.1,5.7c-7.8,0.7-13-3.7-13.6-10.4c-0.6-6.9,4.1-11.4,13.1-12.2l10.1-0.8
	l-0.1-0.7c-0.3-3.9-3.1-5.9-8.2-5.5c-3.3,0.3-7,1.7-10.6,4.1l-3.9-7c5.2-3.2,9.8-5.1,16.2-5.6c9.8-0.8,15.9,3.6,16.7,11.9l2.1,24
	l-10.3,0.9L354.8,110.4z M354,102.2l-0.3-3.3l-8.3,0.7c-4,0.3-5.9,1.7-5.7,4.7c0.2,2.8,2.6,4.5,6.1,4.2
	C350.4,108.1,353.7,105.4,354,102.2z"/>
<path class="st1" d="M407.2,93.1v23.2h-10.5V96.2c0-4.7-2.7-7.5-7.3-7.5c-5.3,0.1-8.4,4-8.4,9.5v18.2h-10.5V79.4H381v6.4
	c2.6-4.6,7-6.8,12.7-6.8C401.9,79,407.2,84.5,407.2,93.1z"/>
<path class="st1" d="M440.7,79.4l-3.6,7.2c-4-2.3-8.2-3.6-11.2-3.6c-2.5,0-4.2,0.8-4.2,2.7c0,5.5,19.5,2.7,19.4,15.8
	c0,7.5-6.6,11.5-15,11.5c-6,0-11.8-1.8-16-5.1l3.4-7.1c3.8,2.9,8.8,4.6,12.8,4.6c2.7,0,4.7-0.9,4.7-2.9c0-5.9-19.1-2.7-19.1-15.7
	c0-7.6,6.5-11.5,14.5-11.5C431.4,75.3,436.6,76.8,440.7,79.4z"/>
<path class="st1" d="M484.7,95.4c-1.1,11.1-8.6,17.9-18.9,16.9c-5.1-0.5-8.9-2.9-11.2-6.9l-1.8,18.5l-10.5-1l4.9-49.9l10.5,1
	l-0.5,5.4c3-3.4,7.2-5.1,12.2-4.6C479.6,75.8,485.8,84.1,484.7,95.4z M474.1,94c0.6-5.9-2.7-10.5-8.1-11c-5.4-0.5-9.5,3.3-10.1,9.2
	c-0.6,6.1,2.7,10.5,8.1,11.1C469.4,103.8,473.5,100,474.1,94z"/>
<path class="st1" d="M509,112.7c-2.8,2.8-6.9,4-12,3.5c-7.8-0.9-12.1-6.2-11.3-12.9c0.8-6.9,6.2-10.4,15.2-9.5L511,95l0.1-0.7
	c0.4-3.9-1.9-6.4-6.9-7c-3.3-0.4-7.2,0.3-11.2,2l-2.5-7.6c5.8-2.1,10.6-3.1,17-2.4c9.8,1.1,14.9,6.6,14,14.9l-2.6,23.9l-10.3-1.2
	L509,112.7z M509.9,104.5l0.4-3.3l-8.2-0.9c-4-0.5-6.1,0.6-6.5,3.5c-0.3,2.8,1.7,4.9,5.2,5.3C505.2,109.6,508.9,107.6,509.9,104.5z"
	/>
<path class="st1" d="M538.3,86.8c3-4.2,7.5-6.2,12.9-5.6l-1.1,9.9c-7.4-1.5-12.5,1.9-13.2,8.1l-2,17.6l-10.5-1.2l4.2-36.6l10.5,1.2
	L538.3,86.8z"/>
<path class="st1" d="M586.1,108.7l-26.3-3c0.7,4.8,3.9,7.9,8.6,8.4c3.5,0.4,6.9-0.6,9.7-2.8l4.9,6.2c-4.1,3.7-9.8,5.4-16.4,4.7
	c-11.7-1.4-18.3-9.7-17-20.8c1.3-11.3,9.9-17.9,21-16.6C583.5,86.2,588.5,95.4,586.1,108.7z M577,101.3c0.4-4.8-2.3-8.3-7.2-8.9
	c-4.6-0.5-8.1,2.2-9.5,7L577,101.3z"/>
<path class="st1" d="M626.9,94.7l-1,23.1l-10.5-0.5l0.9-20c0.2-4.7-2.4-7.7-6.9-7.9c-5.3-0.2-8.6,3.7-8.8,9.1l-0.8,18.1l-10.5-0.5
	l1.7-36.8l10.5,0.5l-0.3,6.4c2.8-4.5,7.3-6.5,13-6.3C622.2,80.4,627.2,86.1,626.9,94.7z"/>
<path class="st1" d="M647.3,108.9l19.3-3.3l1.4,8.2l-32.3,5.4l-1.1-6.6L649.7,88l-18,3l-1.4-8.1l31-5.2l1.1,6.6L647.3,108.9z"/>
<path class="st1" d="M302.9,128c10.5,0.8,16.7,5.8,16.2,13.2c-0.4,5.2-3.8,9-9,9.9c6.1,1.6,9.5,6.5,9.1,12.8
	c-0.6,8.2-7.9,12.7-19,11.9l-22.7-1.7l3.5-47.8L302.9,128z M290.3,146.4l10.7,0.8c4,0.3,6.7-1.5,7-4.8c0.2-3.3-2.1-5.3-6.2-5.6
	L291,136L290.3,146.4z M288.8,166.1l10.7,0.8c5.1,0.4,8.4-1.5,8.6-5.2c0.3-3.5-2.7-5.8-7.8-6.2l-10.7-0.8L288.8,166.1z"/>
<path class="st1" d="M358.6,162.7h-26.4c1.2,4.7,4.8,7.4,9.5,7.4c3.5,0,6.8-1.4,9.3-3.9l5.5,5.6c-3.7,4.1-9.1,6.5-15.8,6.5
	c-11.8,0-19.2-7.5-19.2-18.7c0-11.4,7.7-18.9,19-18.9C353.5,140.7,359.5,149.3,358.6,162.7z M348.8,156.5c-0.1-4.9-3.3-8-8.2-8
	c-4.7,0-7.8,3.2-8.6,8H348.8z"/>
<path class="st1" d="M372.4,149.9c2.6-4.5,6.8-6.9,12.3-6.9l-0.1,9.9c-7.5-0.8-12.2,3.2-12.3,9.4l-0.3,17.7l-10.5-0.2l0.5-36.8
	l10.5,0.2L372.4,149.9z"/>
<path class="st1" d="M391.8,178.9l-3.4-50.7l10.5-0.7l3.4,50.7L391.8,178.9z"/>
<path class="st1" d="M414.2,130c0.4,3.4-1.6,6.1-4.9,6.5c-3.3,0.4-5.9-1.8-6.4-5.2c-0.4-3.4,1.6-6.1,4.9-6.5
	C411.1,124.5,413.8,126.6,414.2,130z M409,178.3l-4.4-36.6l10.5-1.3l4.4,36.6L409,178.3z"/>
<path class="st1" d="M460.5,154v23.2h-10.5v-20.1c0-4.7-2.7-7.5-7.3-7.5c-5.3,0.1-8.4,4-8.4,9.5v18.2h-10.5v-36.8h10.5v6.4
	c2.6-4.6,7-6.8,12.7-6.8C455.2,139.9,460.5,145.4,460.5,154z"/>
</svg>
