<?xml version="1.0" encoding="UTF-8" standalone="no"?>
<svg xmlns="http://www.w3.org/2000/svg" version="1.1" width="433.53751" height="85.512497">
<g transform="matrix(1.25,0,0,-1.25,0,85.5125)">
<g transform="scale(0.1,0.1)">
<path 
d="m 1208.96,114.922 22.2,-60.3712 65.17,171.4412 c 0.98,2.582 2.77,4.668 5.34,6.278 2.56,1.617 5.31,2.418 8.2,2.418 4.52,0 8.15,-1.54 10.87,-4.586 2.73,-3.071 4.11,-6.364 4.11,-9.903 0,-1.926 -0.52,-3.859 -1.47,-5.797 -0.31,-0.64 -1.5,-3.941 -3.6,-9.898 -2.12,-5.957 -5.98,-16.5 -11.59,-31.621 -5.64,-15.149 -13.37,-35.676 -23.19,-61.574 -9.83,-25.9184 -22.46,-58.8363 -37.91,-98.7699 -1.29,-3.53519 -3.14,-6.42582 -5.54,-8.67191 -2.43,-2.26563 -5.88,-3.378909 -10.39,-3.378909 -4.51,0 -8.15,1.347659 -10.85,4.101559 -2.77,2.73438 -4.6,5.3711 -5.58,7.94926 -4.18,11.289 -8.04,22.1484 -11.58,32.6172 -3.53,10.4492 -6.93,20.1875 -10.12,29.1992 -3.56,-9.0117 -7.2,-18.75 -10.88,-29.1992 -3.71,-10.4688 -7.83,-21.3282 -12.31,-32.6172 -1.29,-3.53519 -3.15,-6.42582 -5.55,-8.67191 -2.43,-2.26563 -5.89,-3.378909 -10.4,-3.378909 -4.49,0 -8.12,1.347659 -10.86,4.101559 -2.73,2.73438 -4.59,5.3711 -5.55,7.94926 -13.53,37.0429 -24.96,68.3398 -34.29,93.9379 -9.33,25.593 -16.89,46.183 -22.71,61.808 -5.78,15.606 -9.97,26.965 -12.55,34.055 -2.57,7.07 -3.85,10.773 -3.85,11.101 -0.98,1.93 -1.44,4.18 -1.44,6.758 0,4.176 1.19,7.649 3.6,10.387 2.45,2.73 5.9,4.102 10.41,4.102 3.52,0 6.56,-0.801 9.17,-2.418 2.55,-1.61 4.34,-3.696 5.3,-6.278 l 62.77,-171.4412 22.71,60.4102 c 0,0 5.4,13.574 16.44,13.574 11.04,0 15.92,-13.613 15.92,-13.613"
style="fill:#2f2d2e;fill-opacity:1;fill-rule:nonzero;stroke:none" />
<path 
d="m 1530.57,116.855 c 0,11.915 -2.25,23.184 -6.8,33.813 -4.5,10.621 -10.7,19.863 -18.57,27.762 -7.9,7.883 -17.14,14.086 -27.76,18.586 -10.63,4.507 -21.9,6.761 -33.82,6.761 -11.9,0 -23.09,-2.254 -33.53,-6.761 -10.47,-4.5 -19.67,-10.703 -27.53,-18.586 -7.9,-7.899 -14.1,-17.141 -18.62,-27.762 -4.5,-10.629 -6.79,-21.898 -6.79,-33.813 0,-11.914 2.29,-23.105 6.79,-33.5542 4.52,-10.4688 10.72,-19.6485 18.62,-27.5274 7.86,-7.8906 17.06,-14.0937 27.53,-18.5937 10.44,-4.5234 21.63,-6.7695 33.53,-6.7695 11.62,0 22.56,2.1796 32.86,6.5234 10.27,4.3555 19.37,10.3906 27.27,18.125 7.9,7.7148 14.16,16.7969 18.82,27.2852 4.67,10.4492 7.34,21.9532 8,34.5112 z m 0,-72.4409 c -10.64,-11.8946 -23.45,-22.1289 -38.4,-30.6524 -14.98,-8.53514 -31.13,-12.804669 -48.55,-12.804669 -16.09,0 -31.15,2.910159 -45.12,8.691409 -14.01,5.78126 -26.34,13.84766 -36.95,24.16016 -10.66,10.293 -19.02,22.5195 -25.12,36.6992 -6.1,14.1602 -9.17,29.6092 -9.17,46.3472 0,16.106 2.97,31.313 8.93,45.641 5.96,14.317 14.17,26.801 24.64,37.43 10.45,10.617 22.84,18.992 37.18,25.109 14.29,6.11 29.87,9.164 46.6,9.164 15.45,0 30.16,-3.133 44.17,-9.414 13.99,-6.273 26.32,-14.722 36.95,-25.351 10.61,-10.614 19.08,-23.032 25.35,-37.176 6.26,-14.188 9.41,-29.297 9.41,-45.403 l 0,-101.8941 c 0,-4.1796 -1.45,-7.71481 -4.35,-10.60543 C 1553.24,1.44531 1549.72,0 1545.53,0 c -4.21,0 -7.73,1.44531 -10.64,4.35547 -2.88,2.89062 -4.32,6.42583 -4.32,10.60543 l 0,29.4532"
style="fill:#2f2d2e;fill-opacity:1;fill-rule:nonzero;stroke:none" />
<path
d="m 1613.61,294.086 c 0,4.176 1.46,7.734 4.32,10.625 2.92,2.898 6.46,4.344 10.66,4.344 4.19,0 7.72,-1.446 10.6,-4.344 2.93,-2.891 4.37,-6.449 4.37,-10.625 l 0,-58.914 32.21,0 c 4.23,0 7.79,-1.442 10.71,-4.344 2.94,-2.902 4.39,-6.453 4.39,-10.629 0,-4.183 -1.45,-7.734 -4.39,-10.625 -2.92,-2.902 -6.48,-4.34 -10.71,-4.34 l -32.21,0 0,-189.8043 c 0,-4.1797 -1.42,-7.71486 -4.28,-10.60548 -2.84,-2.89844 -6.34,-4.335939 -10.46,-4.335939 -4.11,0 -7.6,1.437499 -10.45,4.335939 -2.86,2.89062 -4.27,6.42578 -4.27,10.60548 l 0,189.8043 -32.18,0 c -4.26,0 -7.84,1.438 -10.75,4.34 -2.91,2.891 -4.39,6.442 -4.39,10.625 0,4.176 1.46,7.727 4.34,10.629 2.9,2.902 6.45,4.344 10.63,4.344 l 31.86,0 0,58.914"
style="fill:#2f2d2e;fill-opacity:1;fill-rule:nonzero;stroke:none" />
<path
d="m 1801.94,233.73 c 12.87,0 24.49,-1.937 34.77,-5.804 10.32,-3.863 19.17,-8.285 26.58,-13.274 7.41,-5.007 13.1,-9.984 17.13,-14.98 4.02,-4.984 6.02,-8.77 6.02,-11.348 0,-3.539 -1.44,-6.594 -4.3,-9.168 -2.94,-2.586 -6.14,-3.859 -9.68,-3.859 -4.19,0 -7.74,1.441 -10.63,4.344 -8.03,7.078 -17.22,12.785 -27.52,17.136 -10.31,4.344 -21.41,6.52 -33.34,6.52 -11.89,0 -23.08,-2.25 -33.53,-6.758 -10.49,-4.512 -19.65,-10.711 -27.54,-18.586 -7.88,-7.902 -14.07,-17.152 -18.6,-27.777 -4.49,-10.625 -6.74,-21.895 -6.74,-33.789 0,-11.922 2.25,-23.1136 6.74,-33.5745 4.53,-10.4687 10.72,-19.6289 18.6,-27.5391 7.89,-7.8906 17.05,-14.0625 27.54,-18.5742 10.45,-4.5117 21.64,-6.7578 33.53,-6.7578 11.93,0 23.03,2.168 33.34,6.5117 10.3,4.3477 19.49,10.3828 27.52,18.0977 2.89,2.9101 6.44,4.3555 10.63,4.3555 3.87,0 7.31,-1.379 10.39,-4.1016 3.06,-2.7344 4.59,-6.2109 4.59,-10.3906 0,-2.5586 -1.87,-6.3477 -5.56,-11.3282 -3.7,-5 -9.26,-9.9218 -16.68,-14.7265 -7.4,-4.8438 -16.46,-9.02346 -27.27,-12.56643 -10.79,-3.54688 -23.12,-5.304689 -36.96,-5.304689 -16.07,0 -31.13,2.890629 -45.14,8.691409 -14.01,5.78121 -26.3,13.82811 -36.93,24.13281 -10.62,10.3008 -19,22.5273 -25.1,36.707 -6.12,14.1602 -9.18,29.6094 -9.18,46.3675 0,16.086 2.95,31.133 8.94,45.136 5.94,14.012 14.13,26.243 24.6,36.711 10.45,10.457 22.86,18.829 37.21,25.102 14.29,6.281 29.83,9.73 46.57,10.394"
style="fill:#2f2d2e;fill-opacity:1;fill-rule:nonzero;stroke:none" />
<path
d="m 1907.23,294.086 c 0,4.176 1.47,7.734 4.35,10.625 2.91,2.898 6.41,4.344 10.63,4.344 4.18,0 7.71,-1.446 10.63,-4.344 2.88,-2.891 4.33,-6.449 4.33,-10.625 l 0,-81.133 c 7.41,6.442 15.93,11.594 25.6,15.453 9.65,3.864 19.96,5.793 30.91,5.793 11.91,0 23.19,-2.25 33.8,-6.758 10.63,-4.507 19.88,-10.707 27.77,-18.589 7.89,-7.895 14.1,-17.137 18.59,-27.762 4.5,-10.629 6.74,-21.895 6.74,-33.805 l 0,-131.8553 c 0,-4.1797 -1.44,-7.71486 -4.33,-10.60548 -2.89,-2.89844 -6.45,-4.335939 -10.61,-4.335939 -4.21,0 -7.73,1.437499 -10.64,4.335939 -2.91,2.89062 -4.35,6.42578 -4.35,10.60548 l 0,131.8553 c 0,7.719 -1.54,15.043 -4.56,21.969 -3.09,6.918 -7.19,12.953 -12.34,18.109 -5.15,5.153 -11.2,9.176 -18.1,12.071 -6.92,2.906 -14.25,4.343 -21.97,4.343 -7.74,0 -14.98,-1.437 -21.73,-4.343 -6.77,-2.895 -12.72,-6.758 -17.87,-11.586 -5.17,-4.828 -9.17,-10.551 -12.07,-17.145 -2.92,-6.605 -4.5,-13.601 -4.84,-21.008 l 0,-134.2653 c 0,-4.4922 -1.39,-8.10548 -4.09,-10.83986 -2.75,-2.7539 -6.37,-4.101559 -10.87,-4.101559 -4.22,0 -7.67,1.437499 -10.39,4.335939 -2.74,2.89062 -4.27,6.42578 -4.59,10.60548 l 0,278.6563"
style="fill:#2f2d2e;fill-opacity:1;fill-rule:nonzero;stroke:none" />
<path
d="m 2096.51,20.2734 c 0,5.4688 1.95,10.1368 5.8,14.0039 3.88,3.8672 8.52,5.8008 14.05,5.8008 5.45,0 10.11,-1.9336 13.95,-5.8008 3.88,-3.8671 5.83,-8.5351 5.83,-14.0039 0,-5.4687 -1.95,-10.1367 -5.83,-13.98434 -3.84,-3.88672 -8.5,-5.800779 -13.95,-5.800779 -5.53,0 -10.17,1.914059 -14.05,5.800779 -3.85,3.84764 -5.8,8.51564 -5.8,13.98434"
style="fill:#2f2d2e;fill-opacity:1;fill-rule:nonzero;stroke:none" />
<path
d="m 2346.19,116.855 c -0.66,12.559 -3.28,24.141 -7.97,34.778 -4.66,10.625 -10.84,19.797 -18.58,27.523 -7.72,7.723 -16.73,13.758 -27.04,18.114 -10.31,4.335 -21.25,6.507 -32.86,6.507 -11.88,0 -23.17,-2.254 -33.79,-6.761 -10.61,-4.5 -19.88,-10.703 -27.77,-18.586 -7.9,-7.899 -14.08,-17.141 -18.6,-27.762 -4.48,-10.629 -6.74,-21.898 -6.74,-33.813 0,-11.914 2.26,-23.105 6.74,-33.5542 4.52,-10.4688 10.7,-19.6485 18.6,-27.5274 7.89,-7.8906 17.16,-14.0937 27.77,-18.5937 10.62,-4.5234 21.91,-6.7695 33.79,-6.7695 11.92,0 23.1,2.2461 33.57,6.7695 10.45,4.5 19.63,10.7031 27.53,18.5937 7.9,7.8789 14.08,17.0586 18.59,27.5274 4.51,10.4492 6.76,21.6402 6.76,33.5542 z m 0,177.231 c 0,4.176 1.45,7.734 4.35,10.625 2.89,2.898 6.43,4.344 10.63,4.344 4.19,0 7.71,-1.446 10.64,-4.344 2.87,-2.891 4.31,-6.449 4.31,-10.625 l 0,-278.6563 c 0,-4.1797 -1.44,-7.71486 -4.31,-10.60548 -2.93,-2.89844 -6.45,-4.335939 -10.64,-4.335939 -4.2,0 -7.74,1.437499 -10.63,4.335939 -2.9,2.89062 -4.35,6.42578 -4.35,10.60548 l 0,22.7148 -4.35,-4.3359 c -10.61,-10.3125 -23.02,-18.3789 -37.19,-24.16016 -14.15,-5.78125 -29.14,-8.691409 -44.91,-8.691409 -16.39,0 -31.69,3.066409 -45.85,9.179669 -14.17,6.1133 -26.5,14.4922 -36.95,25.1172 -10.46,10.6133 -18.75,22.9297 -24.87,36.9414 -6.14,13.9961 -9.15,28.8787 -9.15,44.6597 0,16.106 3.11,31.215 9.37,45.403 6.31,14.144 14.77,26.562 25.38,37.176 10.62,10.629 22.91,19.078 36.93,25.351 14,6.281 28.75,9.414 44.18,9.414 18.03,-0.644 34.46,-5.238 49.27,-13.754 14.8,-8.531 27.5,-18.593 38.14,-30.187 l 0,103.828"
style="fill:#2f2d2e;fill-opacity:1;fill-rule:nonzero;stroke:none" />
<path
d="m 2596.34,132.793 c -1.92,9.98 -5.47,19.316 -10.62,28.008 -5.16,8.695 -11.53,16.176 -19.06,22.461 -7.58,6.281 -16.12,11.265 -25.62,14.972 -9.48,3.692 -19.57,5.543 -30.17,5.543 -10.64,0 -20.69,-1.851 -30.19,-5.543 -9.48,-3.707 -18.05,-8.691 -25.59,-14.972 -7.58,-6.285 -13.85,-13.766 -18.83,-22.461 -5,-8.692 -8.43,-18.028 -10.41,-28.008 l 170.49,0 z m -170.95,-29.93 c 1.61,-10.3122 5,-19.8942 10.13,-28.7302 5.16,-8.8789 11.51,-16.5156 19.1,-22.9609 7.54,-6.4258 16.16,-11.5156 25.81,-15.1953 9.66,-3.6993 19.8,-5.5664 30.44,-5.5664 11.93,0 23.02,2.1796 33.32,6.5234 10.3,4.3555 19.47,10.3906 27.53,18.125 2.89,2.8906 6.43,4.3281 10.64,4.3281 4.16,0 7.68,-1.4375 10.6,-4.3281 2.9,-2.9102 4.36,-6.4648 4.36,-10.6445 0,-4.1797 -1.46,-7.7149 -4.36,-10.6055 -10.6,-11.9141 -22.63,-20.3711 -35.98,-25.3711 -13.35,-5 -28.72,-7.480469 -46.11,-7.480469 -16.1,0 -31.16,2.910159 -45.14,8.691409 -14.02,5.78126 -26.35,13.84766 -36.95,24.16016 -10.64,10.293 -18.99,22.5195 -25.11,36.6992 -6.12,14.1602 -9.18,29.6092 -9.18,46.3472 0,16.106 2.99,31.157 8.93,45.157 5.98,14.004 14.15,26.23 24.63,36.695 10.46,10.469 22.86,18.832 37.2,25.121 14.3,6.274 29.83,9.727 46.59,10.371 15.14,0 29.69,-3.054 43.69,-9.164 14.01,-6.117 26.33,-14.492 36.96,-25.109 10.6,-10.629 19.15,-22.949 25.58,-36.953 6.43,-14.004 9.67,-29.055 9.67,-45.153 0,-4.82 -1.64,-8.523 -4.82,-11.101 -3.24,-2.578 -6.62,-3.856 -10.19,-3.856 l -187.34,0"
style="fill:#2f2d2e;fill-opacity:1;fill-rule:nonzero;stroke:none" />
<path
d="m 203.305,485.453 c 0,11.91 -2.258,23.184 -6.762,33.809 -4.512,10.621 -10.699,19.863 -18.59,27.761 -7.902,7.883 -17.148,14.086 -27.773,18.586 -10.617,4.508 -21.895,6.766 -33.797,6.766 -11.914,0 -23.1057,-2.258 -33.5666,-6.766 -10.4687,-4.5 -19.6445,-10.703 -27.5234,-18.586 -7.8946,-7.898 -14.0899,-17.14 -18.5977,-27.761 -4.5078,-10.625 -6.7539,-21.899 -6.7539,-33.809 0,-11.914 2.2461,-23.105 6.7539,-33.555 4.5078,-10.472 10.7031,-19.652 18.5977,-27.535 7.8789,-7.886 17.0547,-14.09 27.5234,-18.59 10.4609,-4.519 21.6526,-6.765 33.5666,-6.765 11.59,0 22.523,2.176 32.836,6.515 10.297,4.36 19.386,10.395 27.273,18.125 7.895,7.723 14.168,16.805 18.844,27.286 4.668,10.453 7.316,21.961 7.969,34.519 z m 0,-72.441 c -10.629,-11.903 -23.422,-22.133 -38.399,-30.657 -14.965,-8.535 -31.14,-12.8 -48.523,-12.8 -16.11,0 -31.1486,2.902 -45.1564,8.691 -14.0078,5.781 -26.3164,13.84 -36.9414,24.156 -10.6133,10.289 -18.9961,22.524 -25.10551,36.7 C 3.05469,453.262 0,468.707 0,485.453 c 0,16.102 2.97266,31.309 8.9375,45.637 5.9453,14.316 14.1523,26.801 24.6211,37.43 10.4687,10.617 22.8516,18.992 37.1836,25.109 14.332,6.109 29.8628,9.164 46.6058,9.164 15.461,0 30.172,-3.133 44.191,-9.414 14.004,-6.274 26.32,-14.723 36.938,-25.352 10.625,-10.617 19.074,-23.031 25.347,-37.175 6.278,-14.188 9.422,-29.297 9.422,-45.399 l 0,-101.898 c 0,-4.184 -1.453,-7.719 -4.351,-10.61 -2.903,-2.902 -6.438,-4.355 -10.625,-4.355 -4.184,0 -7.723,1.453 -10.625,4.355 -2.895,2.891 -4.34,6.426 -4.34,10.61 l 0,29.457"
style="fill:#f25639;fill-opacity:1;fill-rule:nonzero;stroke:none" />
<path
d="m 290.227,481.109 c 0.316,-11.586 2.902,-22.379 7.718,-32.363 4.828,-9.98 11.102,-18.664 18.828,-26.078 7.731,-7.41 16.743,-13.27 27.055,-17.617 10.297,-4.352 21.246,-6.52 32.836,-6.52 11.899,0 23.176,2.246 33.797,6.758 10.625,4.512 19.875,10.691 27.766,18.582 7.886,7.902 14.093,17.07 18.593,27.539 4.512,10.453 6.766,21.649 6.766,33.567 0,11.902 -2.254,23.171 -6.766,33.793 -4.5,10.625 -10.707,19.875 -18.593,27.777 -7.891,7.879 -17.141,14.074 -27.766,18.586 -10.621,4.508 -21.898,6.758 -33.797,6.758 -11.59,0 -22.539,-2.172 -32.836,-6.52 -10.312,-4.351 -19.324,-10.375 -27.055,-18.101 -7.726,-7.723 -14,-16.915 -18.828,-27.54 -4.816,-10.625 -7.402,-22.21 -7.718,-34.753 l 0,-3.868 z M 260.281,662.68 c 0,4.175 1.453,7.734 4.348,10.625 2.898,2.898 6.434,4.343 10.625,4.343 4.176,0 7.711,-1.445 10.621,-4.343 2.895,-2.891 4.352,-6.45 4.352,-10.625 l 0,-104.305 c 10.628,11.586 23.332,21.648 38.152,30.172 14.797,8.539 31.211,13.113 49.242,13.777 15.465,0 30.188,-3.144 44.192,-9.429 14,-6.27 26.316,-14.727 36.941,-25.356 10.625,-10.621 19.074,-23.012 25.351,-37.184 6.286,-14.16 9.415,-29.289 9.415,-45.378 0,-15.782 -3.055,-30.676 -9.172,-44.68 -6.121,-14.004 -14.41,-26.317 -24.871,-36.934 -10.454,-10.621 -22.774,-19.004 -36.934,-25.117 -14.168,-6.121 -29.457,-9.168 -45.879,-9.168 -17.387,0 -33.488,3.289 -48.285,9.899 -14.82,6.589 -27.524,15.691 -38.152,27.289 l 0,-22.239 c 0,-4.183 -1.457,-7.718 -4.352,-10.613 -2.91,-2.894 -6.445,-4.336 -10.621,-4.336 -4.191,0 -7.727,1.442 -10.625,4.336 -2.895,2.895 -4.348,6.43 -4.348,10.613 l 0,278.653"
style="fill:#f25639;fill-opacity:1;fill-rule:nonzero;stroke:none" />
<path
d="m 712.766,488.352 c -0.649,11.582 -3.301,22.461 -7.965,32.589 -4.684,10.149 -10.949,18.993 -18.84,26.563 -7.879,7.559 -16.984,13.516 -27.289,17.867 -10.297,4.348 -21.234,6.52 -32.832,6.52 -11.918,0 -23.102,-2.25 -33.559,-6.758 -10.465,-4.512 -19.64,-10.707 -27.519,-18.586 -7.903,-7.902 -14.098,-17.152 -18.602,-27.777 -4.512,-10.622 -6.758,-21.891 -6.758,-33.793 0,-11.918 2.246,-23.114 6.758,-33.567 4.504,-10.469 10.699,-19.637 18.602,-27.539 7.879,-7.891 17.054,-14.07 27.519,-18.582 10.457,-4.512 21.641,-6.758 33.559,-6.758 11.598,0 22.535,2.168 32.832,6.52 10.305,4.347 19.41,10.207 27.289,17.617 7.891,7.414 14.156,16.098 18.84,26.078 4.664,9.984 7.316,20.777 7.965,32.363 l 0,7.243 z m 0,95.125 c 0,4.195 1.445,7.738 4.347,10.625 2.899,2.902 6.434,4.347 10.617,4.347 4.188,0 7.731,-1.445 10.629,-4.347 2.895,-2.887 4.344,-6.43 4.344,-10.625 l 0,-186.391 c 0,-15.781 -3.062,-30.676 -9.18,-44.668 -6.117,-14.016 -14.402,-26.324 -24.863,-36.938 -10.461,-10.636 -22.781,-18.996 -36.937,-25.128 -14.172,-6.11 -29.461,-9.164 -45.883,-9.164 -16.41,0 -31.555,2.894 -45.387,8.695 -13.844,5.793 -26.074,13.84 -36.703,24.137 l -0.484,0.476 c -2.895,2.91 -4.348,6.297 -4.348,10.149 0,4.187 1.531,7.804 4.59,10.867 3.058,3.062 6.68,4.578 10.871,4.578 4.18,0 7.555,-1.266 10.133,-3.856 8.043,-8.046 17.218,-14.324 27.531,-18.828 10.293,-4.515 21.562,-6.765 33.797,-6.765 11.914,0 23.187,2.25 33.808,6.765 10.618,4.504 19.879,10.703 27.758,18.582 7.899,7.895 14.086,17.078 18.602,27.528 4.5,10.453 6.758,21.644 6.758,33.57 l 0,10.617 C 702.141,395.797 689.34,386.367 674.379,379.449 659.41,372.527 643.23,369.078 625.84,369.078 c -16.106,0 -31.149,2.895 -45.149,8.699 -13.996,5.778 -26.312,13.825 -36.941,24.125 -10.625,10.309 -18.988,22.536 -25.117,36.707 -6.113,14.161 -9.164,29.614 -9.164,46.368 0,16.089 2.969,31.136 8.929,45.14 5.954,14.016 14.161,26.242 24.625,36.707 10.457,10.461 22.86,18.832 37.188,25.106 14.316,6.285 29.848,9.73 46.602,10.394 16.726,-0.328 32.503,-4.031 47.32,-11.109 14.812,-7.094 27.691,-16.758 38.633,-28.973 l 0,21.235"
style="fill:#f25639;fill-opacity:1;fill-rule:nonzero;stroke:none" />
<path
d="m 964.84,501.383 c -1.926,9.98 -5.481,19.32 -10.637,28.012 -5.144,8.695 -11.504,16.175 -19.062,22.46 -7.567,6.282 -16.094,11.266 -25.586,14.969 -9.5,3.696 -19.571,5.551 -30.196,5.551 -10.613,0 -20.683,-1.855 -30.175,-5.551 -9.496,-3.703 -18.028,-8.687 -25.586,-14.969 -7.578,-6.285 -13.852,-13.765 -18.836,-22.46 -5,-8.692 -8.449,-18.032 -10.391,-28.012 l 170.469,0 z m -170.953,-29.93 c 1.617,-10.308 5.004,-19.887 10.156,-28.726 5.137,-8.875 11.504,-16.52 19.062,-22.961 7.559,-6.43 16.192,-11.512 25.844,-15.196 9.649,-3.703 19.797,-5.562 30.41,-5.562 11.907,0 23.02,2.176 33.321,6.515 10.312,4.36 19.484,10.395 27.519,18.125 2.91,2.899 6.446,4.332 10.645,4.332 4.179,0 7.715,-1.433 10.625,-4.332 2.89,-2.902 4.336,-6.464 4.336,-10.636 0,-4.18 -1.446,-7.723 -4.336,-10.61 -10.625,-11.918 -22.637,-20.375 -35.977,-25.367 -13.359,-5 -28.73,-7.48 -46.133,-7.48 -16.093,0 -31.14,2.902 -45.144,8.691 -14,5.781 -26.317,13.84 -36.942,24.156 -10.625,10.289 -19.003,22.524 -25.105,36.7 -6.121,14.16 -9.172,29.605 -9.172,46.351 0,16.102 2.973,31.152 8.934,45.152 5.953,14.004 14.16,26.231 24.617,36.696 10.465,10.469 22.863,18.832 37.187,25.121 14.317,6.273 29.856,9.726 46.602,10.371 15.137,0 29.707,-3.055 43.711,-9.164 13.984,-6.117 26.308,-14.492 36.933,-25.109 10.618,-10.629 19.153,-22.95 25.586,-36.954 6.446,-14.003 9.668,-29.054 9.668,-45.148 0,-4.824 -1.629,-8.531 -4.832,-11.105 -3.214,-2.575 -6.613,-3.86 -10.136,-3.86 l -187.379,0"
style="fill:#f25639;fill-opacity:1;fill-rule:nonzero;stroke:none" />
<path
d="m 1128.06,572.375 c -11.9,0 -23.11,-2.258 -33.55,-6.766 -10.48,-4.5 -19.66,-10.703 -27.53,-18.586 -7.9,-7.898 -14.1,-17.14 -18.6,-27.761 -4.51,-10.625 -6.75,-21.899 -6.75,-33.809 0,-11.914 2.24,-23.105 6.75,-33.555 4.5,-10.472 10.7,-19.652 18.6,-27.535 7.87,-7.886 17.05,-14.09 27.53,-18.59 10.44,-4.519 21.65,-6.765 33.55,-6.765 11.92,0 23.18,2.246 33.8,6.765 10.63,4.5 19.88,10.704 27.77,18.59 7.87,7.883 14.09,17.063 18.6,27.535 4.49,10.45 6.76,21.641 6.76,33.555 0,11.91 -2.27,23.184 -6.76,33.809 -4.51,10.621 -10.73,19.863 -18.6,27.761 -7.89,7.883 -17.14,14.086 -27.77,18.586 -10.62,4.508 -21.88,6.766 -33.8,6.766 z m 0.97,30.418 c 15.46,0 30.18,-3.133 44.18,-9.414 14.02,-6.274 26.33,-14.723 36.95,-25.352 10.63,-10.617 19.06,-23.031 25.35,-37.175 6.27,-14.188 9.4,-29.297 9.4,-45.399 0,-15.781 -3.05,-30.672 -9.16,-44.66 -6.12,-14.012 -14.41,-26.328 -24.87,-36.949 -10.46,-10.617 -22.77,-19 -36.94,-25.114 -14.17,-6.109 -29.45,-9.175 -45.88,-9.175 -16.09,0 -31.14,2.902 -45.14,8.691 -14.01,5.781 -26.32,13.84 -36.94,24.156 -10.64,10.289 -19,22.524 -25.13,36.7 -6.11,14.16 -9.17,29.605 -9.17,46.351 0,16.102 2.98,31.152 8.95,45.152 5.95,14.004 14.14,26.231 24.61,36.696 10.46,10.469 22.87,18.832 37.19,25.121 14.32,6.273 29.86,9.726 46.6,10.371"
style="fill:#f25639;fill-opacity:1;fill-rule:nonzero;stroke:none" />
<path
d="m 1261.82,588.793 c 0,4.176 1.47,7.727 4.36,10.633 2.89,2.898 6.43,4.34 10.62,4.34 4.18,0 7.72,-1.442 10.63,-4.34 2.89,-2.906 4.34,-6.457 4.34,-10.633 l 0,-23.66 c 10.3,11.258 22.69,20.523 37.18,27.762 14.49,7.257 30.25,10.871 47.32,10.871 5.15,0 9.25,-1.442 12.33,-4.34 3.06,-2.906 4.57,-6.457 4.57,-10.633 0,-4.184 -1.51,-7.734 -4.57,-10.625 -3.08,-2.902 -7.18,-4.34 -12.33,-4.34 -11.58,0 -22.38,-2.262 -32.36,-6.758 -9.98,-4.515 -18.75,-10.629 -26.31,-18.363 -7.56,-7.715 -13.69,-16.578 -18.34,-26.551 -4.68,-9.984 -7.18,-20.445 -7.49,-31.39 l 0,-106.739 c 0,-4.183 -1.45,-7.718 -4.34,-10.613 -2.91,-2.894 -6.45,-4.336 -10.63,-4.336 -4.19,0 -7.73,1.442 -10.62,4.336 -2.89,2.895 -4.36,6.43 -4.36,10.613 l 0,204.766"
style="fill:#f25639;fill-opacity:1;fill-rule:nonzero;stroke:none" />
<path
d="m 1596,485.453 c -0.65,12.551 -3.32,24.141 -7.97,34.774 -4.67,10.625 -10.86,19.796 -18.59,27.523 -7.73,7.723 -16.74,13.758 -27.04,18.113 -10.31,4.336 -21.25,6.512 -32.84,6.512 -11.92,0 -23.19,-2.258 -33.8,-6.766 -10.63,-4.5 -19.89,-10.703 -27.77,-18.586 -7.89,-7.898 -14.08,-17.14 -18.59,-27.761 -4.51,-10.625 -6.76,-21.899 -6.76,-33.809 0,-11.914 2.25,-23.105 6.76,-33.555 4.51,-10.472 10.7,-19.652 18.59,-27.535 7.88,-7.886 17.14,-14.09 27.77,-18.59 10.61,-4.519 21.88,-6.765 33.8,-6.765 11.9,0 23.1,2.246 33.56,6.765 10.46,4.5 19.64,10.704 27.53,18.59 7.89,7.883 14.08,17.063 18.59,27.535 4.51,10.45 6.76,21.641 6.76,33.555 z m 0,177.227 c 0,4.175 1.45,7.734 4.36,10.625 2.87,2.898 6.42,4.343 10.61,4.343 4.17,0 7.73,-1.445 10.63,-4.343 2.9,-2.891 4.34,-6.45 4.34,-10.625 l 0,-278.653 c 0,-4.183 -1.44,-7.718 -4.34,-10.613 -2.9,-2.894 -6.46,-4.336 -10.63,-4.336 -4.19,0 -7.74,1.442 -10.61,4.336 -2.91,2.895 -4.36,6.43 -4.36,10.613 l 0,22.711 -4.35,-4.336 c -10.63,-10.316 -23.01,-18.375 -37.18,-24.156 -14.17,-5.789 -29.13,-8.691 -44.91,-8.691 -16.42,0 -31.71,3.066 -45.86,9.175 -14.18,6.114 -26.49,14.497 -36.96,25.114 -10.47,10.621 -18.76,22.937 -24.86,36.949 -6.13,13.988 -9.18,28.879 -9.18,44.66 0,16.102 3.13,31.211 9.41,45.399 6.27,14.144 14.73,26.558 25.36,37.175 10.62,10.629 22.94,19.078 36.94,25.352 14.01,6.281 28.73,9.414 44.19,9.414 18.02,-0.645 34.43,-5.238 49.25,-13.754 14.81,-8.531 27.53,-18.594 38.15,-30.187 l 0,103.828"
style="fill:#f25639;fill-opacity:1;fill-rule:nonzero;stroke:none" />
<path
d="m 1655.4,588.793 c 0,4.176 1.45,7.727 4.35,10.633 2.89,2.898 6.44,4.34 10.62,4.34 4.19,0 7.72,-1.442 10.63,-4.34 2.91,-2.906 4.34,-6.457 4.34,-10.633 l 0,-6.273 c 7.4,6.429 15.93,11.582 25.59,15.445 9.66,3.863 19.95,5.801 30.91,5.801 11.9,0 23.18,-2.262 33.81,-6.762 10.62,-4.524 19.86,-10.703 27.75,-18.598 7.89,-7.886 14.09,-17.136 18.6,-27.758 4.51,-10.625 6.77,-21.902 6.77,-33.816 l 0,-132.805 c 0,-4.183 -1.46,-7.718 -4.35,-10.613 -2.89,-2.894 -6.45,-4.336 -10.63,-4.336 -4.19,0 -7.73,1.442 -10.63,4.336 -2.89,2.895 -4.35,6.43 -4.35,10.613 l 0,132.805 c 0,7.734 -1.52,15.063 -4.58,21.981 -3.05,6.925 -7.16,12.949 -12.31,18.105 -5.15,5.152 -11.19,9.176 -18.11,12.074 -6.93,2.899 -14.23,4.352 -21.97,4.352 -7.73,0 -14.96,-1.453 -21.73,-4.352 -6.77,-2.898 -12.72,-6.75 -17.86,-11.582 -5.16,-4.84 -9.18,-10.547 -12.09,-17.152 -2.89,-6.59 -4.5,-13.602 -4.82,-20.996 l 0,-135.235 c 0,-4.183 -1.43,-7.718 -4.34,-10.613 -2.91,-2.894 -6.44,-4.336 -10.63,-4.336 -4.18,0 -7.73,1.442 -10.62,4.336 -2.9,2.895 -4.35,6.43 -4.35,10.613 l 0,204.766"
style="fill:#f25639;fill-opacity:1;fill-rule:nonzero;stroke:none" />
<path
d="m 2053.32,501.383 c -1.93,9.98 -5.48,19.32 -10.64,28.012 -5.14,8.695 -11.5,16.175 -19.06,22.46 -7.56,6.282 -16.12,11.266 -25.6,14.969 -9.5,3.696 -19.56,5.551 -30.18,5.551 -10.63,0 -20.69,-1.855 -30.18,-5.551 -9.5,-3.703 -18.04,-8.687 -25.58,-14.969 -7.58,-6.285 -13.85,-13.765 -18.85,-22.46 -4.98,-8.692 -8.45,-18.032 -10.38,-28.012 l 170.47,0 z m -170.95,-29.93 c 1.6,-10.308 4.98,-19.887 10.13,-28.726 5.15,-8.875 11.51,-16.52 19.09,-22.961 7.56,-6.43 16.17,-11.512 25.82,-15.196 9.67,-3.703 19.8,-5.562 30.43,-5.562 11.91,0 23.02,2.176 33.32,6.515 10.3,4.36 19.49,10.395 27.52,18.125 2.91,2.899 6.44,4.332 10.64,4.332 4.16,0 7.73,-1.433 10.62,-4.332 2.9,-2.902 4.34,-6.464 4.34,-10.636 0,-4.18 -1.44,-7.723 -4.34,-10.61 -10.62,-11.918 -22.63,-20.375 -35.98,-25.367 -13.37,-5 -28.73,-7.48 -46.12,-7.48 -16.1,0 -31.15,2.902 -45.16,8.691 -14,5.781 -26.31,13.84 -36.93,24.156 -10.63,10.289 -19,22.524 -25.11,36.7 -6.12,14.16 -9.19,29.605 -9.19,46.351 0,16.102 2.99,31.152 8.95,45.152 5.95,14.004 14.16,26.231 24.62,36.696 10.46,10.469 22.86,18.832 37.18,25.121 14.33,6.273 29.86,9.726 46.61,10.371 15.12,0 29.69,-3.055 43.69,-9.164 14.01,-6.117 26.32,-14.492 36.95,-25.109 10.62,-10.629 19.15,-22.95 25.59,-36.954 6.45,-14.003 9.66,-29.054 9.66,-45.148 0,-4.824 -1.61,-8.531 -4.83,-11.105 -3.22,-2.575 -6.6,-3.86 -10.14,-3.86 l -187.36,0"
style="fill:#f25639;fill-opacity:1;fill-rule:nonzero;stroke:none" />
<path
d="m 2124.77,662.68 c 0,4.175 1.47,7.734 4.36,10.625 2.91,2.898 6.44,4.343 10.63,4.343 4.17,0 7.73,-1.445 10.63,-4.343 2.89,-2.891 4.35,-6.45 4.35,-10.625 l 0,-58.914 32.19,0 c 4.23,0 7.8,-1.442 10.73,-4.34 2.93,-2.906 4.4,-6.457 4.4,-10.633 0,-4.184 -1.47,-7.734 -4.4,-10.625 -2.93,-2.902 -6.5,-4.34 -10.73,-4.34 l -32.19,0 0,-189.801 c 0,-4.183 -1.45,-7.718 -4.31,-10.613 -2.85,-2.894 -6.32,-4.336 -10.43,-4.336 -4.12,0 -7.62,1.442 -10.46,4.336 -2.86,2.895 -4.28,6.43 -4.28,10.613 l 0,189.801 -32.19,0 c -4.24,0 -7.8,1.438 -10.73,4.34 -2.93,2.891 -4.4,6.441 -4.4,10.625 0,4.176 1.45,7.727 4.35,10.633 2.9,2.898 6.43,4.34 10.63,4.34 l 31.85,0 0,58.914"
style="fill:#f25639;fill-opacity:1;fill-rule:nonzero;stroke:none" />
<path
d="m 2396.68,501.383 c -1.94,9.98 -5.48,19.32 -10.64,28.012 -5.16,8.695 -11.5,16.175 -19.07,22.46 -7.55,6.282 -16.11,11.266 -25.6,14.969 -9.49,3.696 -19.53,5.551 -30.17,5.551 -10.64,0 -20.7,-1.855 -30.2,-5.551 -9.49,-3.703 -18.03,-8.687 -25.58,-14.969 -7.57,-6.285 -13.85,-13.765 -18.84,-22.46 -4.99,-8.692 -8.45,-18.032 -10.38,-28.012 l 170.48,0 z m -170.97,-29.93 c 1.62,-10.308 5,-19.887 10.15,-28.726 5.14,-8.875 11.51,-16.52 19.07,-22.961 7.56,-6.43 16.17,-11.512 25.84,-15.196 9.66,-3.703 19.79,-5.562 30.43,-5.562 11.91,0 23,2.176 33.32,6.515 10.29,4.36 19.47,10.395 27.52,18.125 2.89,2.899 6.42,4.332 10.62,4.332 4.18,0 7.74,-1.433 10.62,-4.332 2.91,-2.902 4.34,-6.464 4.34,-10.636 0,-4.18 -1.43,-7.723 -4.34,-10.61 -10.62,-11.918 -22.62,-20.375 -35.97,-25.367 -13.36,-5 -28.73,-7.48 -46.11,-7.48 -16.11,0 -31.16,2.902 -45.18,8.691 -13.98,5.781 -26.3,13.84 -36.91,24.156 -10.63,10.289 -19.02,22.524 -25.12,36.7 -6.11,14.16 -9.18,29.605 -9.18,46.351 0,16.102 2.97,31.152 8.94,45.152 5.94,14.004 14.17,26.231 24.62,36.696 10.46,10.469 22.87,18.832 37.18,25.121 14.32,6.273 29.85,9.726 46.6,10.371 15.15,0 29.71,-3.055 43.71,-9.164 14.01,-6.117 26.3,-14.492 36.95,-25.109 10.61,-10.629 19.13,-22.95 25.57,-36.954 6.45,-14.003 9.67,-29.054 9.67,-45.148 0,-4.824 -1.62,-8.531 -4.82,-11.105 -3.23,-2.575 -6.62,-3.86 -10.14,-3.86 l -187.38,0"
style="fill:#f25639;fill-opacity:1;fill-rule:nonzero;stroke:none" />
<path
d="m 2450.28,588.793 c 0,4.176 1.42,7.727 4.31,10.633 2.93,2.898 6.45,4.34 10.63,4.34 4.2,0 7.73,-1.442 10.61,-4.34 2.94,-2.906 4.35,-6.457 4.35,-10.633 l 0,-6.273 c 7.44,6.429 15.98,11.582 25.63,15.445 9.62,3.863 19.94,5.801 30.89,5.801 11.92,0 23.19,-2.262 33.79,-6.762 10.65,-4.524 19.89,-10.703 27.8,-18.598 7.87,-7.886 14.06,-17.136 18.57,-27.758 4.53,-10.625 6.78,-21.902 6.78,-33.816 l 0,-132.805 c 0,-4.183 -1.47,-7.718 -4.36,-10.613 -2.89,-2.894 -6.46,-4.336 -10.62,-4.336 -4.18,0 -7.74,1.442 -10.61,4.336 -2.93,2.895 -4.37,6.43 -4.37,10.613 l 0,132.805 c 0,7.734 -1.53,15.063 -4.57,21.981 -3.07,6.925 -7.19,12.949 -12.33,18.105 -5.17,5.152 -11.17,9.176 -18.1,12.074 -6.94,2.899 -14.26,4.352 -21.98,4.352 -7.75,0 -14.98,-1.453 -21.73,-4.352 -6.74,-2.898 -12.7,-6.75 -17.86,-11.582 -5.15,-4.84 -9.18,-10.547 -12.07,-17.152 -2.91,-6.59 -4.53,-13.602 -4.86,-20.996 l 0,-135.235 c 0,-4.183 -1.41,-7.718 -4.35,-10.613 -2.88,-2.894 -6.41,-4.336 -10.61,-4.336 -4.18,0 -7.7,1.442 -10.63,4.336 -2.89,2.895 -4.31,6.43 -4.31,10.613 l 0,204.766"
style="fill:#f25639;fill-opacity:1;fill-rule:nonzero;stroke:none" />
<path 
d="m 3450.56,583.84 c 0,45.566 -36.92,82.508 -82.52,82.508 l -483.1,0 c -45.59,0 -82.53,-36.942 -82.53,-82.508 l 0,-483.137 c 0,-45.5936 36.94,-82.5194 82.53,-82.5194 l 483.1,0 c 45.6,0 82.52,36.9258 82.52,82.5194 l 0,483.137 z"
style="fill:none;stroke:#f25639;stroke-width:35.49300003;stroke-linecap:butt;stroke-linejoin:miter;stroke-miterlimit:4;stroke-opacity:1;stroke-dasharray:none" />
<path
d="m 3271.08,480.234 c 33.47,-34.957 53.14,-79.586 56.52,-127.289 l 64.11,0.528 c -3.58,64.101 -29.5,124.203 -74.38,171.07 -44.49,46.469 -102.78,74.906 -166.05,81.582 l -3.32,-64.031 c 46.88,-5.75 89.99,-27.266 123.12,-61.86"
style="fill:#f25639;fill-opacity:1;fill-rule:nonzero;stroke:none" />
<path 
d="m 3122.41,607.715 c -69.81,0 -135.74,-26.481 -186.32,-74.918 l 44.31,-46.25 c 37.93,36.375 87.1,56.383 139.58,56.894 l 3.35,64.258 c -0.31,0 -0.62,0.016 -0.92,0.016"
style="fill:#f25639;fill-opacity:1;fill-rule:nonzero;stroke:none" />
<path d="m 3264.74,189.551 44.25,-46.254 c 23.6,22.562 42.53,48.734 56.36,77.285 l -61.89,19.84 c -10.09,-18.613 -23.01,-35.82 -38.72,-50.871" style="fill:#f25639;fill-opacity:1;fill-rule:nonzero;stroke:none" />
<path d="m 3391.84,325.469 -64.33,-0.531 c -1.29,-20.387 -5.5,-40.114 -12.5,-58.809 l 61.24,-19.637 c 9.02,25.102 14.31,51.637 15.59,78.977" style="fill:#f25639;fill-opacity:1;fill-rule:nonzero;stroke:none" />
<path d="m 3215.64,394.332 c 7.86,-12.871 12.88,-27.191 14.92,-42.199 l 64.41,0.535 c -2.78,31.789 -14.22,61.809 -33.14,87.461 l -46.19,-45.797" style="fill:#f25639;fill-opacity:1;fill-rule:nonzero;stroke:none" />
<path d="m 3197.72,257.766 44.3,-46.258 c 31.43,30.109 49.93,70.047 53.03,113.148 l -64.16,-0.531 c -2.99,-25.277 -14.55,-48.523 -33.17,-66.359" style="fill:#f25639;fill-opacity:1;fill-rule:nonzero;stroke:none" />
<path d="m 3001.3,462.895 44.3,-46.235 c 19.02,18.195 43.18,28.711 69.36,30.258 l 3.34,64.09 c -43.79,-0.731 -85.16,-17.617 -117,-48.113" style="fill:#f25639;fill-opacity:1;fill-rule:nonzero;stroke:none" />
<path d="m 3243.42,461.32 c -26.72,26.235 -60.48,42.891 -97.16,48.039 l -3.34,-64.308 c 20.69,-4.024 39.64,-13.914 55.05,-28.797 l 45.45,45.066" style="fill:#f25639;fill-opacity:1;fill-rule:nonzero;stroke:none" />
<path d="m 3121.64,340.559 -1.6,-1.59 1.62,-0.078 -0.02,1.668" style="fill:#ffffff;fill-opacity:1;fill-rule:nonzero;stroke:none" />
</g>
</g>
</svg>