<?xml version="1.0" encoding="utf-8"?>
<!-- Generator: Adobe Illustrator 22.1.0, SVG Export Plug-In . SVG Version: 6.00 Build 0)  -->
<svg version="1.1" id="Layer_1" xmlns="http://www.w3.org/2000/svg" xmlns:xlink="http://www.w3.org/1999/xlink" x="0px" y="0px"
	 viewBox="0 0 646.2 184.4" style="enable-background:new 0 0 646.2 184.4;" xml:space="preserve">
<style type="text/css">
	.st0{fill:#FFFFFF;}
</style>
<rect x="-0.2" y="-0.5" width="646.8" height="185.2"/>
<path d="M35.8,147.3c2.3-5.8,4.3-11.1,6.5-16.4c3.3-8.3,6.5-16.6,10.1-24.7c3-6.9,5.5-13.9,8-21c3-8.6,6.5-17,9.7-25.5
	c1.5-4,2.9-8.1,4.3-12.2c2.6-7.3,5.5-14.6,9.2-21.4c0.3-0.6,0.5-1.2,0.6-1.9c0.8-2.7,2.9-3.9,5.6-3c2.8,0.9,5.6,2,8.5,3
	c7.7,2.7,15.4,5.5,23.1,8.2c0.9,0.3,1.8,0.5,3,0.8c-0.6,2.5-1,5.1-1.9,7.5c-3,8.3-6.1,16.5-9.3,24.8c-3,7.7-6.1,15.5-9.4,23.1
	c-5.2,11.9-10.9,23.5-16,35.4c-3.9,9.2-8.2,18.4-11,28c-0.7,2.3-1.5,4.6-2.5,6.8c-0.5,1.1-1.5,2-2.4,3.2c-4.1-1.5-8.1-2.8-12-4.3
	c-4.1-1.6-8.1-3.4-12.2-5.1c-1.4-0.6-2.8-1.5-4.2-2.3c-1.4-0.8-2.6-1.6-4.4-1.3C38.1,149,36.9,147.8,35.8,147.3z M45.3,145
	c5,3.8,21.3,10.7,24.6,10.7c1.2-3.1,2.3-6.2,3.5-9.2c3.7-9,7.3-18.1,11.2-27.1c3.5-8.1,7.3-16.1,10.8-24.1c3.7-8.5,7.5-17,10.9-25.6
	c3.7-9.3,7.1-18.8,10.6-28.2c0.6-1.6,1-3.4,1.5-5.2c-10-3.3-19.4-7.4-29.5-10.2c-1.6,3.3-3.1,6.4-4.7,9.7c8.8,3.3,17.3,6.5,25.8,9.8
	c-0.3,1.3-0.5,2.4-0.8,3.5c-0.3,1-1,1.4-1.9,1c-5-2-9.9-4.1-14.9-6c-3.2-1.2-6.5-2.3-9.9-3.4c-0.5,1.3-0.9,2.3-1.3,3.5
	c8.4,3.2,16.6,6.3,25.1,9.5c-0.3,1.4-0.6,2.8-0.9,4.4c-0.8,0-1.4,0.1-1.9-0.1c-5.7-2.1-11.4-4.3-17.1-6.5c-1.9-0.7-3.9-1.5-5.8-2.1
	c-0.9-0.3-1.7-0.1-2.1,0.9c-0.3,0.9-0.2,1.7,0.8,2.1c0.5,0.2,1,0.5,1.5,0.7c6.8,2.8,13.5,5.6,20.3,8.3c0.6,0.2,1.1,0.6,1.8,0.9
	c-0.2,1-0.3,1.9-0.5,2.8c-0.4,1.4-1,1.6-2.3,1.1c-4.4-2-8.9-4-13.3-5.9c-3.3-1.4-6.6-2.5-10.1-3.8c-0.4,1.2-0.8,2.2-1.3,3.4
	c1.6,0.7,3,1.4,4.5,2c5.5,2.1,11.1,4.2,16.6,6.3c1.5,0.6,2.8,1.4,4.3,2.2c-0.4,1.5-0.7,2.8-1,4.2c-8.9-3.4-17.5-6.6-26.3-9.9
	c-0.5,1.4-1,2.6-1.5,4c8.1,3.1,16.1,6.1,24.3,9.2c-0.3,1.5-0.7,2.9-1.1,4.7c-8.7-3.2-16.9-6.7-25.7-9c-0.6,1.8-1,3.3-1.6,5
	c8.2,2.6,16.1,5,24.2,7.6c0.6,1.7,0.1,3.3-1.5,5c-7.9-3.4-16.1-5.7-24.6-7.8c-5.8,17.9-14.4,34.4-20.9,51.9
	c8.8,4.1,17.6,8.2,26.4,12.4c-0.8,2.7-1.2,5.3-3,7.3C60.6,151.5,53,148.3,45.3,145z M43.6,140.8c-1.9,2.4-1.9,2.4-0.4,3.1
	C43.3,142.9,43.4,141.9,43.6,140.8z"/>
<path d="M174.8,27.4c8-0.7,15.6-1.6,23.3-1.9c6-0.3,12,0.2,18,0.4c1.7,0.1,2.2,0.6,2.1,2.3c-0.3,7-0.6,14-0.9,21
	c-0.1,4.1-0.2,8.3-0.1,12.4c0.2,8.1,0.6,16.3,0.9,24.4c0.1,1.9-0.3,3.7-0.3,5.6c0.2,12.5,0.4,24.9,0.6,37.4
	c0.1,5.6,0.2,11.2,0.2,16.8c0,4.4-0.2,8.7-0.3,13.1c-1.9,0.8-3.4,0.9-5-0.2c-0.5-0.3-1.2-0.4-1.8-0.4c-5.2,0-10.5,0-15.7,0
	c-5.3,0-10.5-0.1-15.8-0.2c-2.8,0-3.2-0.4-2.3-3.1c1.2-3.7,0.3-7.4,0.5-11.2c0.3-7.4-1.1-14.6-1.8-21.8c-0.8-7.6-1.1-15.2-1.4-22.8
	c-0.3-5.9-0.2-11.8-0.5-17.7c-0.4-8.1-1.1-16.1-1.5-24.2c-0.2-3.2,0-6.4,0-9.6c0-4.3,0-8.6-0.2-12.9
	C172.5,31.8,172.9,29.2,174.8,27.4z M177.7,31.8c0,0.6-0.1,1-0.1,1.5c0,7-0.1,14,0.2,21.1c0.3,7.8,1,15.5,1.3,23.3
	c0.3,7.8,0.4,15.6,0.7,23.3c0.2,6.1,0.6,12.2,1.1,18.2c0.4,4.4,1.3,8.7,1.5,13.1c0.2,2.9,0.9,5.7,0.5,8.6c-0.5,4.1-0.2,8.2,0.6,12.3
	c9.9-0.1,19.7,1.1,29.7,0.1c0.1-1.1,0.2-2,0.2-2.9c0-2.5-0.1-5.1-0.1-7.6c0-6.7,0.1-13.3,0-20c-0.1-9.7-0.5-19.5-0.6-29.2
	c-0.1-3.3,0.2-6.6,0.2-9.8c-0.2-8-0.6-15.9-0.7-23.9c-0.1-5,0.1-9.9,0.3-14.9c0.1-3.4,0.4-6.7,0.6-10.1c0.1-1.5,0-3.1,0-4.6
	c-2.7-0.2-5.1-0.7-7.4-0.6c-8.5,0.4-17,1.1-25.5,1.7C179.4,31.5,178.6,31.7,177.7,31.8z"/>
<path d="M163.8,159.2c-2.5,0-4.9-0.1-7.2,0c-2.3,0.1-4.7,0.1-7,0.5c-5.9,1.1-11.8,0-17.7-0.1c-1.7,0-3.3,0-5.2,0c0,1.3,0,2.4,0,3.5
	c-0.4,0.2-0.5,0.4-0.7,0.4c-4.9-0.3-4.1-0.3-4.1-4.3c-0.1-7.2-0.4-14.4-0.3-21.6c0.1-6.3,0.9-12.5,1.3-18.8c0.2-2.6,0-5.3,0.1-7.9
	c0.1-6.6,0.2-13.3,0.3-19.9c0.2-12.5,0.4-24.9,0.5-37.4c0.1-5.9,0-11.8-0.1-17.7c0-4,0.8-5,4.8-5.7c1.3-0.2,2.6-0.3,3.9-0.3
	c9.6-0.4,19.1-0.8,28.7-1.3c1.7-0.1,3.5-0.4,5.2-0.6c0.5,1.9,0.6,3.3-0.1,5.1c-0.8,1.9-0.6,4.2-0.8,6.4c-0.9,9.4-0.9,18.7-0.2,28.1
	c0.5,6.4,0.2,13,0.8,19.4c1,11.7,0.4,23.4,0.6,35.1c0.1,7.3-0.1,14.6-0.2,21.9c-0.1,3.9-0.3,7.9-0.5,11.8c0,0.5-0.3,1-0.6,1.4
	C164.8,157.7,164.3,158.4,163.8,159.2z M160.9,154.1c0.3-3.8,0.6-7.3,0.7-10.9c0.2-6.7,0.3-13.5,0.3-20.2c0-8.1,0.1-16.3-0.1-24.4
	c-0.1-5.3-0.6-10.7-0.8-16c-0.3-6.4-0.5-12.7-0.7-19.1c-0.2-6.4-0.7-12.7,0-19.1c0.4-3.6,0.6-7.2,0.9-10.8
	c-3.1-0.9-26.3,0.1-32.4,1.5c-0.1,1-0.1,2-0.2,3c-0.1,10.4-0.1,20.8-0.2,31.2c-0.2,12.2-0.5,24.4-0.7,36.6
	c-0.1,6.1,0.2,12.2-0.2,18.2c-0.6,8.4-1.2,16.8-1.1,25.3c0,1.7,0.2,3.3,0.2,4.9C138.1,156.3,149.4,154.7,160.9,154.1z"/>
<path class="st0" d="M45.3,145c7.6,3.3,15.3,6.5,23.1,9.9c1.8-2,2.2-4.5,3-7.3c-8.9-4.2-17.6-8.3-26.4-12.4
	c6.4-17.5,15.1-34,20.9-51.9c8.4,2.1,16.7,4.4,24.6,7.8c1.5-1.7,2.1-3.3,1.5-5c-8.1-2.6-16-5-24.2-7.6c0.6-1.8,1-3.3,1.6-5
	c8.8,2.3,17,5.7,25.7,9c0.4-1.8,0.7-3.2,1.1-4.7c-8.2-3.1-16.2-6.1-24.3-9.2c0.5-1.5,1-2.6,1.5-4c8.8,3.3,17.3,6.5,26.3,9.9
	c0.4-1.4,0.7-2.7,1-4.2c-1.5-0.8-2.9-1.6-4.3-2.2c-5.5-2.1-11.1-4.2-16.6-6.3c-1.5-0.6-2.9-1.3-4.5-2c0.5-1.2,0.8-2.2,1.3-3.4
	c3.5,1.3,6.8,2.5,10.1,3.8c4.5,1.9,8.9,4,13.3,5.9c1.3,0.6,1.9,0.3,2.3-1.1c0.3-0.9,0.4-1.8,0.5-2.8c-0.7-0.4-1.2-0.7-1.8-0.9
	c-6.8-2.8-13.5-5.6-20.3-8.3c-0.5-0.2-1-0.5-1.5-0.7c-0.9-0.5-1.1-1.3-0.8-2.1c0.4-0.9,1.2-1.2,2.1-0.9c1.9,0.7,3.9,1.4,5.8,2.1
	c5.7,2.2,11.4,4.3,17.1,6.5c0.5,0.2,1.1,0.1,1.9,0.1c0.3-1.6,0.6-3,0.9-4.4c-8.5-3.2-16.7-6.3-25.1-9.5c0.5-1.2,0.8-2.2,1.3-3.5
	c3.4,1.2,6.7,2.2,9.9,3.4c5,1.9,9.9,4,14.9,6c1,0.4,1.7,0,1.9-1c0.3-1.1,0.5-2.2,0.8-3.5c-8.5-3.2-17-6.4-25.8-9.8
	c1.6-3.3,3.1-6.4,4.7-9.7c10.1,2.8,19.5,6.9,29.5,10.2c-0.5,1.9-0.9,3.6-1.5,5.2c-3.5,9.4-6.9,18.9-10.6,28.2
	c-3.4,8.6-7.2,17.1-10.9,25.6c-3.5,8.1-7.3,16-10.8,24.1c-3.8,9-7.5,18-11.2,27.1c-1.2,3-2.3,6.1-3.5,9.2
	C66.6,155.7,50.3,148.8,45.3,145z M79.1,111.5c2-5.8-0.9-9.9-7-9.9c-0.6,0-1.1,0-1.7,0.1c-4.5,0.8-7.2,7.1-4.3,10.6
	c1.7,2.1,4.2,3.4,7.1,3.4C76,115.7,78.2,114.2,79.1,111.5z"/>
<path class="st0" d="M177.7,31.8c0.9-0.2,1.7-0.4,2.5-0.4c8.5-0.6,17-1.2,25.5-1.7c2.3-0.1,4.7,0.3,7.4,0.6c0,1.5,0.1,3.1,0,4.6
	c-0.2,3.4-0.5,6.7-0.6,10.1c-0.2,5-0.3,9.9-0.3,14.9c0.1,8,0.5,15.9,0.7,23.9c0.1,3.3-0.2,6.6-0.2,9.8c0.2,9.7,0.5,19.5,0.6,29.2
	c0.1,6.7,0,13.3,0,20c0,2.5,0.1,5.1,0.1,7.6c0,0.9-0.1,1.8-0.2,2.9c-10,1-19.8-0.2-29.7-0.1c-0.8-4.1-1.1-8.3-0.6-12.3
	c0.3-3-0.4-5.8-0.5-8.6c-0.3-4.4-1.2-8.7-1.5-13.1c-0.5-6.1-0.8-12.2-1.1-18.2c-0.3-7.8-0.3-15.6-0.7-23.3
	c-0.3-7.8-1.1-15.5-1.3-23.3c-0.3-7-0.2-14-0.2-21.1C177.6,32.9,177.7,32.4,177.7,31.8z M183.2,36.5c-2,2.2-2.6,4.7-2.4,7.4
	c0.4,6.1,0.9,12.1,1.3,18.2c0.5,6.4,1,12.9,1.5,19.3c0.4,6.1,0.8,12.3,1.2,18.5c0.5,6.7,1,13.4,1.5,20.1c0.2,2.5,0.4,5,0.6,7.5
	c3.1,1.2,3.8,1,5.2-1.6c5.3,0.3,10.7,0.6,16.3,0.9c0.2-1.7,1.7-2.6,1.7-4.4c-0.1-6.2,0-12.4,0.1-18.6c0-1.9,0.1-3.7,0.1-5.6
	c0-4.2,0-8.4,0-12.6c0-3.2,0.3-6.4,0.2-9.6c-0.3-9.8-0.6-19.6-1-29.4c-0.1-3.8-0.2-7.6-2.2-10.9C199.1,35.9,191.1,36.2,183.2,36.5z
	 M192.3,141.5C192.3,141.5,192.3,141.5,192.3,141.5c0,1.2,0.1,2.4,0.2,3.6c0.5,4,3.3,6.2,7.2,5.7c3.3-0.4,6-2,8.4-4.3
	c0.4-0.4,0.6-0.9,0.7-1.4c0.6-3.8,0-7.5-2.3-10.7c-1.2-1.8-2.9-3.1-5.2-2.6c-1.8,0.4-3.7,0.7-5.4,1.4c-2,0.8-3.3,2.4-3.5,4.7
	C192.2,139.1,192.3,140.3,192.3,141.5z"/>
<path class="st0" d="M160.9,154.1c-11.5,0.6-22.7,2.2-34.3,0.1c-0.1-1.6-0.2-3.3-0.2-4.9c-0.1-8.5,0.5-16.9,1.1-25.3
	c0.4-6,0.1-12.1,0.2-18.2c0.2-12.2,0.5-24.4,0.7-36.6c0.1-10.4,0.2-20.8,0.2-31.2c0-1,0.1-2,0.2-3c6.2-1.3,29.3-2.4,32.4-1.5
	c-0.3,3.6-0.5,7.2-0.9,10.8c-0.7,6.4-0.2,12.7,0,19.1c0.2,6.4,0.4,12.7,0.7,19.1c0.2,5.3,0.7,10.7,0.8,16c0.2,8.1,0.1,16.3,0.1,24.4
	c0,6.7-0.1,13.5-0.3,20.2C161.5,146.8,161.1,150.3,160.9,154.1z M150.3,44.7c-0.2-1-0.1-2.4-0.7-2.9c-1.9-1.6-4.1-2.8-6.7-2.3
	c-1,0.2-2.2,0.8-2.8,1.7c-1.3,1.9-1.9,4.1-0.7,6.4c1.2,2.3,3.1,3.4,5.7,3.5c0.5,0,1.1,0,1.4-0.2C148.3,49.2,150.8,47.9,150.3,44.7z
	 M149.5,146.9c-0.1-0.3-0.1-1.2-0.6-1.7c-1.6-1.8-3.7-2.9-6.2-2.7c-1.4,0.1-2.3,0.7-2.8,2.2c-0.9,3.1-0.5,4.6,2.3,6.7
	c3.4,2.6,6.5,1.3,7.1-3C149.5,148.1,149.5,147.7,149.5,146.9z M140.6,115.8c0.9,0.8,1.4,1.5,2.1,1.8c3.4,1.1,6.9,1.6,10.5,1.2
	c1.3-0.2,2.1-0.9,2.1-2.2c0-0.7-0.2-1.4-0.3-2.4C150.1,114.4,145.5,114.1,140.6,115.8z M139,131.5c0.8,0.9,1.2,1.8,1.8,2
	c3.3,0.8,6.7,1.4,10.1,2c1.5,0.2,2.7-0.7,2.9-1.9c0.2-1.5-0.4-2-2.2-2.4C147.5,130.1,143.6,130.8,139,131.5z M153.9,110
	c0-2.9-0.7-3.9-3-4.1c-2.3-0.2-4.7-0.2-7-0.1c-1.2,0.1-2.4,0.6-4.2,1.2C144.3,110.7,149,110.3,153.9,110z M139.4,124.4
	c4.3,2.4,8.4,3.1,12.6,3.2c1.4,0,2.1-0.5,2.2-2c0.1-1.4-0.4-2.2-1.8-2.3C148.2,122.9,144.1,123.1,139.4,124.4z"/>
<path d="M79.1,111.5c-0.9,2.7-3.1,4.2-5.9,4.2c-2.9,0-5.4-1.3-7.1-3.4c-2.9-3.6-0.2-9.8,4.3-10.6c0.5-0.1,1.1-0.1,1.7-0.1
	C78.2,101.6,81.1,105.7,79.1,111.5z M72.4,104.5c-2.2,1.4-2.9,3.6-2,6.4c0.3,1.1,1,1.7,2,1.6c0.7-0.1,1.4-0.8,1.8-1.5
	c0.6-1,0.9-2.2,1.3-3.3C75,106,74.1,104.8,72.4,104.5z"/>
<path d="M183.2,36.5c7.9-0.3,15.9-0.6,24-0.9c2,3.4,2,7.2,2.2,10.9c0.4,9.8,0.7,19.6,1,29.4c0.1,3.2-0.2,6.4-0.2,9.6
	c0,4.2,0,8.4,0,12.6c0,1.9-0.1,3.7-0.1,5.6c-0.1,6.2-0.2,12.4-0.1,18.6c0,1.9-1.5,2.7-1.7,4.4c-5.6-0.3-11-0.6-16.3-0.9
	c-1.4,2.6-2.2,2.8-5.2,1.6c-0.2-2.4-0.4-4.9-0.6-7.5c-0.5-6.7-1-13.4-1.5-20.1c-0.4-6.2-0.8-12.3-1.2-18.5c-0.5-6.4-1-12.9-1.5-19.3
	c-0.5-6.1-0.9-12.1-1.3-18.2C180.6,41.2,181.2,38.7,183.2,36.5z M205,67.7c-6-0.6-11.7-1.1-17.6-0.2c0.2,1.9,0.5,3.6,0.7,5.4
	c3.1-0.3,5.8-0.7,8.6-0.8c2.8-0.1,5.7,0,8.7,0C205.3,70.7,205.2,69.4,205,67.7z M204,40.3c-6.3,0.2-12.2,0.5-18.1,0.7
	c0,1.6,0,2.8,0,4.4c6.1,0,12.2,0,18.4,0C204.2,43.7,204.1,42.3,204,40.3z M188.4,86.3c0,0.8,0,1.3,0,1.7c0,3.3,0.2,3.5,3.4,3.6
	c3.5,0.1,6.9,0.1,10.4,0.1c0.8,0,1.6-0.1,2.5-0.2c0-1.8,0-3.3,0-5.2C199.3,86.3,194,86.3,188.4,86.3z M205.4,77.1
	c-5.7-0.4-11.3-0.2-17.1,0.4c0.1,1.6,0.2,3,0.3,4.5c5.8-0.2,11.2-0.5,16.8-0.7C205.4,79.8,205.4,78.6,205.4,77.1z M186.3,54.4
	c5.9,0,11.4,0,17-0.1c0.4,0,1.2-0.7,1.3-1.2c0.2-0.8-0.1-1.6-0.2-2.4c-4-0.7-16.4-0.6-18.3,0.1C186.2,51.9,186.3,53,186.3,54.4z
	 M186.9,62.7c6.1,0,11.9,0,17.8,0c0-1.3,0-2.3,0-3.3c-3.7-0.8-15.9-0.5-17.8,0.4C186.9,60.7,186.9,61.6,186.9,62.7z M204.9,103.7
	c-5.3-0.2-10.2-0.4-15.3-0.6c0.2,1.2,0.4,2.1,0.5,2.7c5-0.3,9.7,0.5,14.6,0.4C204.8,105.3,204.9,104.6,204.9,103.7z M189.2,96.5
	c-0.5,1.4,0.3,1.9,1.5,1.9c4.3,0.2,8.6,0.4,12.9,0.5c0.8,0,1.6-0.1,1.5-1.1c0-0.9-0.6-1.3-1.5-1.3C198.9,96.5,194.2,96.5,189.2,96.5
	z M190.8,116.2c0.2,1.9,0.3,3.2,0.5,4.7c1.6,0.2,3,0.3,4.5,0.5c-0.4-1.6-0.7-2.8-1-4.1c3.3,0,6.3,0,9.4,0c0-0.2,0-0.4,0-0.6
	C199.9,116.6,195.6,116.4,190.8,116.2z M204.3,111.7c0-0.2,0-0.4,0-0.6c-4.6-0.3-9.1-0.6-13.9-0.9c0.1,0.7,0.2,1.2,0.3,1.6
	C195.3,111.4,199.8,112.3,204.3,111.7z"/>
<path d="M192.3,141.5c0-1.2-0.1-2.4,0-3.6c0.2-2.3,1.5-3.9,3.5-4.7c1.7-0.7,3.6-1,5.4-1.4c2.4-0.5,4,0.8,5.2,2.6
	c2.2,3.2,2.9,6.9,2.3,10.7c-0.1,0.5-0.3,1.1-0.7,1.4c-2.3,2.3-5.1,3.8-8.4,4.3c-4,0.5-6.8-1.7-7.2-5.7
	C192.4,143.9,192.3,142.7,192.3,141.5C192.3,141.5,192.3,141.5,192.3,141.5z M202.2,136.4c-1.1-0.2-2-0.3-2.9-0.5
	c-1.3-0.4-2.1,0.1-2.3,1.3c-0.3,2.6-0.6,5.2-0.5,7.8c0,1.6,2,3.5,3.2,3.5c1.4,0,4.4-2.4,4.5-3.7
	C204.4,141.8,204.4,138.9,202.2,136.4z"/>
<path d="M150.3,44.7c0.5,3.2-2,4.5-3.9,6.1c-0.3,0.3-0.9,0.2-1.4,0.2c-2.5-0.1-4.5-1.2-5.7-3.5c-1.2-2.3-0.5-4.5,0.7-6.4
	c0.6-0.8,1.8-1.5,2.8-1.7c2.6-0.5,4.8,0.8,6.7,2.3C150.3,42.3,150.1,43.7,150.3,44.7z M143.7,48.3c2.4-1.1,3-2.2,2.5-4.8
	c-0.1-0.5-0.5-1.1-0.8-1.2c-0.4-0.1-1.2,0.2-1.4,0.6C143.1,44.6,142.2,46.4,143.7,48.3z"/>
<path d="M149.5,146.9c0,0.8,0,1.2-0.1,1.5c-0.6,4.3-3.7,5.6-7.1,3c-2.8-2.1-3.2-3.6-2.3-6.7c0.5-1.5,1.4-2.1,2.8-2.2
	c2.5-0.2,4.5,0.9,6.2,2.7C149.4,145.7,149.4,146.6,149.5,146.9z M145.4,146c-1.4,0.8-1.7,1.7-0.4,2.9
	C145.1,147.9,145.2,147,145.4,146z"/>
<path d="M140.6,115.8c5-1.8,9.6-1.4,14.3-1.6c0.1,0.9,0.3,1.7,0.3,2.4c0,1.3-0.7,2-2.1,2.2c-3.6,0.4-7.1,0-10.5-1.2
	C142,117.4,141.5,116.6,140.6,115.8z"/>
<path d="M139,131.5c4.6-0.7,8.6-1.4,12.6-0.4c1.9,0.4,2.4,1,2.2,2.4c-0.2,1.2-1.4,2.2-2.9,1.9c-3.4-0.6-6.8-1.2-10.1-2
	C140.2,133.3,139.8,132.4,139,131.5z"/>
<path d="M153.9,110c-4.9,0.3-9.6,0.7-14.2-3c1.8-0.5,3-1.1,4.2-1.2c2.3-0.1,4.7-0.2,7,0.1C153.2,106.1,153.8,107.2,153.9,110z"/>
<path d="M139.4,124.4c4.7-1.3,8.8-1.5,13-1.1c1.4,0.1,1.9,0.9,1.8,2.3c-0.1,1.4-0.8,2-2.2,2C147.7,127.6,143.7,126.9,139.4,124.4z"
	/>
<path class="st0" d="M72.4,104.5c1.7,0.4,2.7,1.6,3,3.2c-0.4,1.1-0.7,2.3-1.3,3.3c-0.4,0.6-1.1,1.4-1.8,1.5c-0.9,0.1-1.7-0.5-2-1.6
	C69.5,108,70.2,105.8,72.4,104.5z"/>
<path class="st0" d="M205,67.7c0.1,1.7,0.2,3,0.3,4.4c-3,0-5.8-0.1-8.7,0c-2.8,0.1-5.6,0.5-8.6,0.8c-0.2-1.8-0.5-3.5-0.7-5.4
	C193.3,66.5,199,67.1,205,67.7z"/>
<path class="st0" d="M204,40.3c0.1,1.9,0.2,3.4,0.3,5c-6.2,0-12.2,0-18.4,0c0-1.5,0-2.8,0-4.4C191.8,40.8,197.7,40.6,204,40.3z"/>
<path class="st0" d="M188.4,86.3c5.6,0,10.8,0,16.3,0c0,1.8,0,3.4,0,5.2c-0.9,0.1-1.7,0.2-2.5,0.2c-3.5,0-6.9,0-10.4-0.1
	c-3.3-0.1-3.4-0.3-3.4-3.6C188.4,87.6,188.4,87.1,188.4,86.3z"/>
<path class="st0" d="M205.4,77.1c0,1.4,0,2.7,0,4.2c-5.6,0.2-11,0.5-16.8,0.7c-0.1-1.6-0.2-2.9-0.3-4.5
	C194,77,199.6,76.7,205.4,77.1z"/>
<path class="st0" d="M186.3,54.4c-0.1-1.4-0.1-2.5-0.2-3.5c1.9-0.7,14.3-0.7,18.3-0.1c0.1,0.8,0.3,1.6,0.2,2.4
	c-0.1,0.5-0.8,1.2-1.3,1.2C197.8,54.4,192.2,54.4,186.3,54.4z"/>
<path class="st0" d="M186.9,62.7c0-1,0-1.9,0-2.8c1.9-0.9,14.1-1.2,17.8-0.4c0,1,0,2,0,3.3C198.8,62.7,193,62.7,186.9,62.7z"/>
<path class="st0" d="M204.9,103.7c-0.1,1-0.1,1.7-0.2,2.5c-4.9,0.1-9.6-0.7-14.6-0.4c-0.1-0.5-0.3-1.5-0.5-2.7
	C194.7,103.3,199.6,103.5,204.9,103.7z"/>
<path class="st0" d="M189.2,96.5c5,0,9.7,0,14.4,0c0.9,0,1.5,0.4,1.5,1.3c0,1.1-0.8,1.2-1.5,1.1c-4.3-0.2-8.6-0.3-12.9-0.5
	C189.5,98.4,188.8,97.9,189.2,96.5z"/>
<path class="st0" d="M190.8,116.2c4.8,0.2,9.1,0.4,13.4,0.6c0,0.2,0,0.4,0,0.6c-3,0-6,0-9.4,0c0.3,1.3,0.6,2.5,1,4.1
	c-1.5-0.2-2.9-0.3-4.5-0.5C191.2,119.5,191,118.1,190.8,116.2z"/>
<path class="st0" d="M204.3,111.7c-4.5,0.7-9-0.3-13.6,0c-0.1-0.4-0.2-0.8-0.3-1.6c4.7,0.3,9.3,0.6,13.9,0.9
	C204.3,111.2,204.3,111.5,204.3,111.7z"/>
<path class="st0" d="M202.2,136.4c2.2,2.5,2.2,5.4,2,8.3c-0.1,1.3-3.1,3.7-4.5,3.7c-1.1,0-3.2-1.9-3.2-3.5c0-2.6,0.2-5.2,0.5-7.8
	c0.1-1.2,1-1.7,2.3-1.3C200.2,136.1,201.2,136.2,202.2,136.4z"/>
<path class="st0" d="M143.7,48.3c-1.5-1.9-0.7-3.7,0.3-5.4c0.2-0.4,1-0.7,1.4-0.6c0.4,0.1,0.8,0.8,0.8,1.2
	C146.8,46.1,146.2,47.2,143.7,48.3z"/>
<path class="st0" d="M145.4,146c-0.1,1-0.3,2-0.4,2.9C143.7,147.7,144,146.8,145.4,146z"/>
<g>
	<path d="M189.4,103c12.6,13.3,27.2,24,40,36.8c-0.2,2.3-1.7,4-3.2,5.7c-1.7,1.9-3.5,3.9-5.1,5.9c-0.3,0.4-0.4,1.2-0.4,1.8
		c0.3,2-0.4,3.6-1.9,5.3c-0.6-0.3-1.3-0.6-1.9-1c-5-4-10-8.1-15.1-12.2c-2.2-1.8-4.4-3.5-6.6-5.3c-3.5-2.8-6.9-5.7-10.4-8.6
		c-1.7-1.4-3.4-2.9-5-4.5c-2.4-2.3-4.6-4.6-7-6.9c-0.6-0.6-1.2-1.1-2-1.8c-1.1,4.3-1.9,8.5-2.3,12.6c-0.3,3.2-0.5,6.4-0.7,9.5
		c0,0.6-0.1,1.1-0.1,1.7c0.1,0.8,0.8,1.6-0.2,2.3c-1,0.7-1.8,1.7-2.9,2.1c-0.9,0.3-1.9,0.2-2.5-1.1c-1.3-2.7-2.9-5.2-4.3-7.8
		c-2.6-4.6-5.1-9.2-7.8-13.7c-3.8-6.5-6.9-13.3-9.3-20.4c-2.3-6.7-5-13.3-8.5-19.5c-1.7-3.1-3-6.4-4.7-9.6c-1.1-2.2-0.3-3.9,1-5.7
		c25.3,6.7,51,11.2,75.8,19.1c-0.1,1.7-0.1,3.2-0.4,4.6c-0.1,0.6-0.8,1.3-1.3,1.7c-3.6,2.5-7.2,5-10.9,7.5
		C191,102,190.3,102.5,189.4,103z M197.2,92.6c-2.1-2.9-5.1-3.4-8.1-4c-0.3-0.1-0.5-0.2-0.8-0.2c-8.8-2.2-17.6-4.4-26.5-6.5
		c-8.2-2-16.4-3.8-24.6-5.7c-1-0.2-2.1-0.7-2.9-0.3c2.8,5.9,5.9,11.5,8.1,17.4c2.4,6.8,5.8,13.2,8.9,19.7
		c3.6,7.4,7.2,14.8,10.9,22.2c0.4,0.8,1,1.6,1.5,2.4c0.7-2.6,0.7-5.2,1.1-7.6c0.7-4,1.6-7.9,2.4-11.9c0.4-2.2,0.8-4.4,1.3-6.6
		c0.5-2.1,1.5-2.6,3.6-2.3c0.7,1,1,2,1.7,2.7c2.6,2.5,5.2,5.1,8.1,7.4c6,4.8,12.2,9.3,18.2,14c3.9,3.1,7.6,6.4,11.4,9.6
		c1.6,1.4,3.3,2.7,4.9,4c2.9-1.9,4.9-4.2,6.2-7.2c-0.9-0.9-1.8-1.9-2.8-2.7c-5.1-4.6-10.2-9.1-15.3-13.7c-3.8-3.4-7.6-6.6-11.3-10
		c-2.9-2.6-5.4-5.7-8.9-7.7c-1.8-1.1-1.4-3.9,0.4-5C188.8,97.9,192.9,95.3,197.2,92.6z"/>
	<path class="st0" d="M197.2,92.6c-4.3,2.7-8.4,5.4-12.5,7.9c-1.8,1.1-2.2,3.9-0.4,5c3.5,2,6,5.1,8.9,7.7c3.7,3.4,7.6,6.7,11.3,10
		c5.1,4.5,10.2,9.1,15.3,13.7c1,0.9,1.8,1.8,2.8,2.7c-1.4,3-3.4,5.3-6.2,7.2c-1.6-1.3-3.3-2.6-4.9-4c-3.8-3.2-7.5-6.5-11.4-9.6
		c-6-4.8-12.2-9.3-18.2-14c-2.8-2.3-5.4-4.8-8.1-7.4c-0.7-0.7-1.1-1.6-1.7-2.7c-2.1-0.3-3.1,0.2-3.6,2.3c-0.5,2.2-0.9,4.4-1.3,6.6
		c-0.8,3.9-1.7,7.9-2.4,11.9c-0.4,2.5-0.4,5-1.1,7.6c-0.5-0.8-1.1-1.6-1.5-2.4c-3.6-7.4-7.3-14.8-10.9-22.2
		c-3.1-6.5-6.5-12.9-8.9-19.7c-2.1-6-5.3-11.5-8.1-17.4c0.9-0.4,1.9,0.1,2.9,0.3c8.2,1.9,16.4,3.7,24.6,5.7
		c8.8,2.1,17.7,4.3,26.5,6.5c0.3,0.1,0.5,0.2,0.8,0.2C192,89.2,195,89.7,197.2,92.6z"/>
</g>
<path class="st0" d="M274.7,67.7l-14-35.2h8.1l10,27l9.1-27h7.7l-13.2,35.2H274.7z"/>
<path class="st0" d="M317.3,57.6c-1,7.7-7.2,12.2-15.3,11.1c-8.1-1.1-12.9-7-11.8-14.8c1-7.8,7.2-12.1,15.3-11
	C313.6,44,318.4,49.8,317.3,57.6z M297.5,55c-0.6,4.1,1.6,7.3,5.4,7.8c3.7,0.5,6.7-2,7.2-6.1c0.6-4.1-1.6-7.3-5.4-7.8
	C300.9,48.4,298,50.8,297.5,55z"/>
<path class="st0" d="M320,69l1.7-35.1l7.3,0.3l-1.7,35.1L320,69z"/>
<path class="st0" d="M339.7,62.9l-0.3,6.9l-7.3-0.3l1.4-35.2l7.3,0.3L340,54l9.7-9.2l8.3,0.3l-9.7,9.4l9.1,16l-8.6-0.4l-5.7-10.6
	L339.7,62.9z"/>
<path class="st0" d="M379.8,49.2l-2.9,4.7c-2.6-1.8-5.4-3-7.5-3.1c-1.7-0.2-3,0.3-3.1,1.6c-0.3,3.8,13.2,3.1,12.4,12
	c-0.5,5.2-5.3,7.5-11,7c-4.1-0.4-8-1.9-10.7-4.5l2.8-4.7c2.5,2.3,5.8,3.7,8.6,3.9c1.8,0.2,3.3-0.3,3.4-1.7c0.4-4.1-13-3.1-12.2-12
	c0.5-5.2,5.2-7.5,10.7-7C373.6,45.8,377.1,47.2,379.8,49.2z"/>
<path class="st0" d="M408.2,58.1L390,59.7c1.1,3.1,3.8,4.8,7,4.5c2.4-0.2,4.6-1.4,6.2-3.3l4.2,3.5c-2.3,3.1-5.9,5-10.5,5.4
	c-8.1,0.7-13.7-4-14.4-11.7c-0.7-7.8,4.2-13.5,11.9-14.2C403.3,43.3,408,48.8,408.2,58.1z M401,54.4c-0.4-3.3-2.8-5.3-6.1-5
	c-3.2,0.3-5.2,2.6-5.5,6L401,54.4z"/>
<path class="st0" d="M436.7,55l0.2,16l-7.3,0.1l-0.2-13.9c0-3.2-2-5.2-5.1-5.1c-3.6,0.1-5.8,2.9-5.7,6.6l0.2,12.6l-7.3,0.1
	l-0.4-25.5l7.3-0.1l0.1,4.5c1.8-3.2,4.8-4.8,8.7-4.9C432.9,45.3,436.6,49,436.7,55z"/>
<path class="st0" d="M455.4,71.4c-2,1-4.4,1.5-6.7,1.3c-4.5-0.3-7.8-3.1-7.5-8.4l0.8-11.8l-3.5-0.2l0.3-5l3.5,0.2l0.5-7l7.2,0.5
	l-0.5,7l6.9,0.5l-0.3,5.1l-6.9-0.5l-0.7,10.5c-0.1,2.1,0.7,3,2.3,3.1c0.9,0.1,2.1-0.2,3.5-0.7L455.4,71.4z"/>
<path class="st0" d="M476.8,48.7l-1.9,5.2c-3-1.2-5.9-1.8-8-1.6c-1.7,0.2-2.9,0.9-2.7,2.2c0.4,3.8,13.6,0.3,14.6,9.3
	c0.6,5.2-3.7,8.4-9.4,9.1c-4.1,0.5-8.2-0.3-11.4-2.3l1.8-5.2c2.9,1.7,6.4,2.5,9.2,2.1c1.8-0.2,3.1-1,3-2.3
	c-0.5-4.1-13.4-0.4-14.4-9.3c-0.6-5.2,3.6-8.4,9.1-9.1C470.1,46.6,473.8,47.3,476.8,48.7z"/>
<path class="st0" d="M504,48.1l-4.6,4c-1.5-1.6-3.5-2.4-6-2.2c-3.5,0.3-5.8,3.3-5.4,7.3c0.4,4.1,3.1,6.7,6.7,6.4
	c2.6-0.2,4.5-1.4,5.6-3.5l5.3,3c-1.8,3.7-5.6,6.2-10.8,6.6c-7.7,0.7-13.4-4.1-14.1-11.8c-0.7-7.8,4.1-13.5,11.9-14.2
	C497.4,43.3,501.4,44.9,504,48.1z"/>
<path class="st0" d="M532.4,53.8v16h-7.3V56c0-3.2-1.9-5.2-5-5.2c-3.7,0-5.9,2.8-5.9,6.5v12.6h-7.3V34.7h7.3v14.2
	c1.8-3.2,4.8-4.7,8.8-4.8C528.8,44.1,532.4,47.9,532.4,53.8z"/>
<path class="st0" d="M560.6,60.2l-18.3,1.1c1.1,3.2,3.6,4.9,6.9,4.7c2.4-0.1,4.6-1.2,6.3-3.1l4.1,3.6c-2.4,3-6,4.9-10.6,5.2
	c-8.1,0.5-13.6-4.4-14.1-12.1c-0.5-7.9,4.5-13.4,12.3-13.9C556.1,45.2,560.7,50.9,560.6,60.2z M553.6,56.3c-0.3-3.4-2.6-5.4-6-5.2
	c-3.2,0.2-5.3,2.5-5.6,5.9L553.6,56.3z"/>
<path class="st0" d="M570.9,37.3c0.1,2.4-1.5,4.1-3.8,4.2c-2.3,0.1-4-1.6-4-4c-0.1-2.4,1.5-4.1,3.8-4.2
	C569.2,33.3,570.9,34.9,570.9,37.3z M564.2,70.2l-0.7-25.5l7.3-0.2l0.7,25.5L564.2,70.2z"/>
<path class="st0" d="M601,72.7h-7.3v-3.7c-1.8,2.6-4.6,4-8.1,4c-7.3,0-12-5.3-12-13.1c0-7.8,4.7-12.9,11.9-12.9c3.6,0,6.4,1.4,8.3,4
	V37.5h7.3V72.7z M593.7,60c0-4.2-2.6-7.1-6.4-7.1c-3.8,0-6.4,2.9-6.4,7.1c0,4.2,2.6,7.1,6.4,7.1C591.1,67.1,593.7,64.2,593.7,60z"/>
<path class="st0" d="M276.3,80.8l2.2,26.7l-7.5,0.6l-2.2-26.7l-10.1,0.8l-0.5-6.3l27.6-2.3l0.5,6.3L276.3,80.8z"/>
<path class="st0" d="M291.5,90.6c1.4-3.3,4.1-5.3,7.9-5.8l0.7,6.8c-5.2,0.1-8.1,3.2-7.7,7.5l1.3,12.2l-7.3,0.8l-2.8-25.4l7.3-0.8
	L291.5,90.6z"/>
<path class="st0" d="M318.9,106.4c-1.5,2.3-4.2,3.7-7.7,4c-5.4,0.5-9-2.6-9.4-7.2c-0.4-4.8,2.8-7.9,9-8.5l7-0.6l0-0.5
	c-0.2-2.7-2.2-4.1-5.6-3.8c-2.3,0.2-4.8,1.2-7.4,2.9l-2.7-4.8c3.6-2.2,6.8-3.5,11.2-3.9c6.8-0.6,11,2.5,11.5,8.2l1.4,16.6l-7.1,0.6
	L318.9,106.4z M318.4,100.6l-0.2-2.3l-5.7,0.5c-2.8,0.2-4.1,1.2-3.9,3.2c0.2,1.9,1.8,3.1,4.2,2.9
	C315.9,104.7,318.1,102.9,318.4,100.6z"/>
<path class="st0" d="M355.2,94.4v16h-7.3V96.5c0-3.2-1.9-5.2-5-5.2c-3.7,0-5.8,2.8-5.8,6.5v12.6h-7.3V84.9h7.3v4.5
	c1.8-3.2,4.8-4.7,8.8-4.7C351.6,84.6,355.2,88.4,355.2,94.4z"/>
<path class="st0" d="M378.4,84.9l-2.5,5c-2.8-1.6-5.6-2.5-7.8-2.5c-1.7,0-2.9,0.6-2.9,1.9c0,3.8,13.5,1.9,13.4,10.9
	c0,5.2-4.6,8-10.4,8c-4.1,0-8.2-1.2-11-3.6l2.4-4.9c2.7,2,6.1,3.2,8.9,3.2c1.8,0,3.2-0.6,3.2-2c0-4.1-13.2-1.9-13.2-10.9
	c0-5.3,4.5-8,10.1-8C372,82.1,375.6,83.1,378.4,84.9z"/>
<path class="st0" d="M408.8,95.9c-0.8,7.7-5.9,12.4-13.1,11.7c-3.5-0.4-6.2-2-7.8-4.8l-1.3,12.8l-7.3-0.7l3.4-34.5l7.3,0.7l-0.4,3.7
	c2-2.4,5-3.5,8.4-3.2C405.3,82.4,409.6,88.1,408.8,95.9z M401.5,95c0.4-4.1-1.9-7.2-5.6-7.6c-3.7-0.4-6.6,2.3-7,6.4
	c-0.4,4.2,1.9,7.3,5.6,7.7C398.2,101.7,401.1,99.1,401.5,95z"/>
<path class="st0" d="M425.7,108c-1.9,1.9-4.8,2.8-8.3,2.4c-5.4-0.6-8.3-4.3-7.8-8.9c0.5-4.8,4.3-7.2,10.5-6.5l7,0.8l0.1-0.5
	c0.3-2.7-1.3-4.4-4.8-4.8c-2.3-0.3-5,0.2-7.8,1.4l-1.7-5.2c4-1.5,7.3-2.1,11.8-1.6c6.8,0.8,10.3,4.6,9.7,10.3l-1.8,16.5l-7.1-0.8
	L425.7,108z M426.3,102.3l0.3-2.3l-5.7-0.6c-2.8-0.3-4.2,0.4-4.5,2.4c-0.2,1.9,1.1,3.4,3.6,3.6C423,105.7,425.6,104.4,426.3,102.3z"
	/>
<path class="st0" d="M446,90c2.1-2.9,5.2-4.3,8.9-3.9l-0.8,6.8c-5.1-1.1-8.6,1.3-9.1,5.6l-1.4,12.2l-7.3-0.8l2.9-25.3l7.3,0.8
	L446,90z"/>
<path class="st0" d="M479.1,105.1l-18.2-2.1c0.5,3.3,2.7,5.5,6,5.8c2.4,0.3,4.8-0.4,6.7-1.9l3.4,4.3c-2.9,2.5-6.8,3.8-11.3,3.2
	c-8.1-0.9-12.6-6.7-11.8-14.4c0.9-7.8,6.8-12.4,14.5-11.5C477.3,89.6,480.7,96,479.1,105.1z M472.8,100.1c0.3-3.4-1.6-5.8-5-6.2
	c-3.2-0.4-5.6,1.5-6.6,4.8L472.8,100.1z"/>
<path class="st0" d="M507.3,95.5l-0.7,16l-7.3-0.3l0.6-13.9c0.1-3.2-1.7-5.3-4.8-5.4c-3.6-0.1-6,2.5-6.1,6.3l-0.6,12.6l-7.3-0.3
	l1.2-25.5l7.3,0.3l-0.2,4.5c1.9-3.1,5-4.5,9-4.3C504,85.5,507.5,89.5,507.3,95.5z"/>
<path class="st0" d="M521.4,105.3l13.4-2.3l1,5.7l-22.4,3.7l-0.8-4.5l10.4-17.1l-12.5,2.1l-0.9-5.6l21.5-3.6l0.8,4.5L521.4,105.3z"
	/>
<path class="st0" d="M283,118.5c7.3,0.5,11.6,4,11.2,9.1c-0.3,3.6-2.6,6.2-6.3,6.9c4.2,1.1,6.6,4.5,6.3,8.9
	c-0.4,5.7-5.5,8.8-13.2,8.2l-15.7-1.2l2.4-33.1L283,118.5z M274.2,131.3l7.4,0.5c2.8,0.2,4.6-1,4.8-3.4c0.2-2.3-1.5-3.7-4.3-3.9
	l-7.4-0.5L274.2,131.3z M273.2,144.9l7.4,0.5c3.5,0.3,5.8-1,6-3.6c0.2-2.4-1.8-4-5.4-4.3l-7.4-0.5L273.2,144.9z"/>
<path class="st0" d="M321.6,142.5h-18.3c0.9,3.2,3.3,5.1,6.6,5.1c2.4,0,4.7-0.9,6.4-2.7l3.8,3.9c-2.6,2.8-6.3,4.5-10.9,4.5
	c-8.2,0-13.3-5.2-13.3-12.9c0-7.9,5.4-13.1,13.1-13.1C318,127.3,322.2,133.2,321.6,142.5z M314.7,138.2c-0.1-3.4-2.3-5.5-5.6-5.5
	c-3.2,0-5.4,2.2-6,5.5H314.7z"/>
<path class="st0" d="M331.1,133.7c1.8-3.1,4.7-4.8,8.5-4.8l-0.1,6.9c-5.2-0.5-8.5,2.2-8.5,6.5l-0.2,12.3l-7.3-0.1l0.4-25.5l7.3,0.1
	L331.1,133.7z"/>
<path class="st0" d="M344.5,153.8l-2.3-35.1l7.3-0.5l2.3,35.1L344.5,153.8z"/>
<path class="st0" d="M360,119.9c0.3,2.4-1.1,4.2-3.4,4.5c-2.3,0.3-4.1-1.2-4.4-3.6c-0.3-2.4,1.1-4.2,3.4-4.5
	C357.9,116.1,359.7,117.6,360,119.9z M356.4,153.4l-3.1-25.3l7.2-0.9l3.1,25.3L356.4,153.4z"/>
<path class="st0" d="M392.1,136.5v16h-7.3v-13.9c0-3.2-1.9-5.2-5-5.2c-3.7,0-5.8,2.8-5.8,6.5v12.6h-7.3v-25.5h7.3v4.5
	c1.8-3.2,4.8-4.7,8.8-4.7C388.4,126.8,392.1,130.6,392.1,136.5z"/>
</svg>
